<mxfile host="Electron" agent="Mozilla/5.0 (X11; Linux x86_64) AppleWebKit/537.36 (KHTML, like Gecko) draw.io/27.0.2 Chrome/134.0.6998.205 Electron/35.3.0 Safari/537.36" version="27.0.2">
  <diagram name="Page-1" id="OmGCWrag1K6YVH2mU4rR">
    <mxGraphModel dx="613" dy="1687" grid="1" gridSize="10" guides="1" tooltips="1" connect="1" arrows="1" fold="1" page="1" pageScale="1" pageWidth="1654" pageHeight="1169" math="0" shadow="0">
      <root>
        <mxCell id="0" />
        <mxCell id="1" parent="0" />
        <mxCell id="ysh0__bV-tm2-gGv3kF3-49" value="" style="group" vertex="1" connectable="0" parent="1">
          <mxGeometry x="440" y="-120" width="70" height="160" as="geometry" />
        </mxCell>
        <mxCell id="ysh0__bV-tm2-gGv3kF3-26" value="" style="endArrow=none;html=1;rounded=0;" edge="1" parent="ysh0__bV-tm2-gGv3kF3-49">
          <mxGeometry width="50" height="50" relative="1" as="geometry">
            <mxPoint y="40" as="sourcePoint" />
            <mxPoint x="50.90909090909091" as="targetPoint" />
          </mxGeometry>
        </mxCell>
        <mxCell id="ysh0__bV-tm2-gGv3kF3-29" value="" style="endArrow=none;html=1;rounded=0;" edge="1" parent="ysh0__bV-tm2-gGv3kF3-49">
          <mxGeometry width="50" height="50" relative="1" as="geometry">
            <mxPoint x="70" as="sourcePoint" />
            <mxPoint x="50.90909090909091" as="targetPoint" />
          </mxGeometry>
        </mxCell>
        <mxCell id="ysh0__bV-tm2-gGv3kF3-25" value="" style="endArrow=none;html=1;rounded=0;fillColor=#eeeeee;strokeColor=#36393d;" edge="1" parent="ysh0__bV-tm2-gGv3kF3-49">
          <mxGeometry width="50" height="50" relative="1" as="geometry">
            <mxPoint x="19.09090909090909" y="40" as="sourcePoint" />
            <mxPoint x="70" as="targetPoint" />
          </mxGeometry>
        </mxCell>
        <mxCell id="ysh0__bV-tm2-gGv3kF3-27" value="" style="endArrow=none;html=1;rounded=0;fillColor=#eeeeee;strokeColor=#36393d;" edge="1" parent="ysh0__bV-tm2-gGv3kF3-49">
          <mxGeometry width="50" height="50" relative="1" as="geometry">
            <mxPoint x="70" y="120" as="sourcePoint" />
            <mxPoint x="70" as="targetPoint" />
          </mxGeometry>
        </mxCell>
        <mxCell id="ysh0__bV-tm2-gGv3kF3-28" value="" style="endArrow=none;html=1;rounded=0;fillColor=#eeeeee;strokeColor=#36393d;" edge="1" parent="ysh0__bV-tm2-gGv3kF3-49">
          <mxGeometry width="50" height="50" relative="1" as="geometry">
            <mxPoint x="70" y="120" as="sourcePoint" />
            <mxPoint x="19.09090909090909" y="160" as="targetPoint" />
          </mxGeometry>
        </mxCell>
        <mxCell id="ysh0__bV-tm2-gGv3kF3-34" value="" style="group;fillColor=#eeeeee;strokeColor=#36393d;" vertex="1" connectable="0" parent="ysh0__bV-tm2-gGv3kF3-49">
          <mxGeometry y="40" width="19.09090909090909" height="120" as="geometry" />
        </mxCell>
        <mxCell id="ysh0__bV-tm2-gGv3kF3-21" value="" style="endArrow=none;html=1;rounded=0;fillColor=#eeeeee;strokeColor=#36393d;" edge="1" parent="ysh0__bV-tm2-gGv3kF3-34">
          <mxGeometry width="50" height="50" relative="1" as="geometry">
            <mxPoint y="120" as="sourcePoint" />
            <mxPoint as="targetPoint" />
          </mxGeometry>
        </mxCell>
        <mxCell id="ysh0__bV-tm2-gGv3kF3-22" value="" style="endArrow=none;html=1;rounded=0;fillColor=#eeeeee;strokeColor=#36393d;" edge="1" parent="ysh0__bV-tm2-gGv3kF3-34">
          <mxGeometry width="50" height="50" relative="1" as="geometry">
            <mxPoint x="19.09090909090909" y="120" as="sourcePoint" />
            <mxPoint x="19.09090909090909" as="targetPoint" />
          </mxGeometry>
        </mxCell>
        <mxCell id="ysh0__bV-tm2-gGv3kF3-23" value="" style="endArrow=none;html=1;rounded=0;fillColor=#eeeeee;strokeColor=#36393d;" edge="1" parent="ysh0__bV-tm2-gGv3kF3-34">
          <mxGeometry width="50" height="50" relative="1" as="geometry">
            <mxPoint x="19.09090909090909" y="120" as="sourcePoint" />
            <mxPoint y="120" as="targetPoint" />
          </mxGeometry>
        </mxCell>
        <mxCell id="ysh0__bV-tm2-gGv3kF3-24" value="" style="endArrow=none;html=1;rounded=0;fillColor=#eeeeee;strokeColor=#36393d;" edge="1" parent="ysh0__bV-tm2-gGv3kF3-34">
          <mxGeometry width="50" height="50" relative="1" as="geometry">
            <mxPoint as="sourcePoint" />
            <mxPoint x="19.09090909090909" as="targetPoint" />
          </mxGeometry>
        </mxCell>
        <mxCell id="ysh0__bV-tm2-gGv3kF3-36" value="" style="endArrow=none;html=1;rounded=0;" edge="1" parent="ysh0__bV-tm2-gGv3kF3-49">
          <mxGeometry width="50" height="50" relative="1" as="geometry">
            <mxPoint x="19.09090909090909" y="160" as="sourcePoint" />
            <mxPoint x="19.09090909090909" y="40" as="targetPoint" />
          </mxGeometry>
        </mxCell>
        <mxCell id="ysh0__bV-tm2-gGv3kF3-50" value="" style="group" vertex="1" connectable="0" parent="1">
          <mxGeometry x="550" y="-80" width="60" height="120" as="geometry" />
        </mxCell>
        <mxCell id="ysh0__bV-tm2-gGv3kF3-51" value="" style="endArrow=none;html=1;rounded=0;" edge="1" parent="ysh0__bV-tm2-gGv3kF3-50">
          <mxGeometry width="50" height="50" relative="1" as="geometry">
            <mxPoint y="30.000000000000007" as="sourcePoint" />
            <mxPoint x="43.63636363636363" as="targetPoint" />
          </mxGeometry>
        </mxCell>
        <mxCell id="ysh0__bV-tm2-gGv3kF3-52" value="" style="endArrow=none;html=1;rounded=0;" edge="1" parent="ysh0__bV-tm2-gGv3kF3-50">
          <mxGeometry width="50" height="50" relative="1" as="geometry">
            <mxPoint x="60" as="sourcePoint" />
            <mxPoint x="43.63636363636363" as="targetPoint" />
          </mxGeometry>
        </mxCell>
        <mxCell id="ysh0__bV-tm2-gGv3kF3-53" value="" style="endArrow=none;html=1;rounded=0;fillColor=#eeeeee;strokeColor=#36393d;" edge="1" parent="ysh0__bV-tm2-gGv3kF3-50">
          <mxGeometry width="50" height="50" relative="1" as="geometry">
            <mxPoint x="16.36363636363636" y="30.000000000000007" as="sourcePoint" />
            <mxPoint x="60" as="targetPoint" />
          </mxGeometry>
        </mxCell>
        <mxCell id="ysh0__bV-tm2-gGv3kF3-54" value="" style="endArrow=none;html=1;rounded=0;fillColor=#eeeeee;strokeColor=#36393d;" edge="1" parent="ysh0__bV-tm2-gGv3kF3-50">
          <mxGeometry width="50" height="50" relative="1" as="geometry">
            <mxPoint x="60" y="90.00000000000001" as="sourcePoint" />
            <mxPoint x="60" as="targetPoint" />
          </mxGeometry>
        </mxCell>
        <mxCell id="ysh0__bV-tm2-gGv3kF3-55" value="" style="endArrow=none;html=1;rounded=0;fillColor=#eeeeee;strokeColor=#36393d;" edge="1" parent="ysh0__bV-tm2-gGv3kF3-50">
          <mxGeometry width="50" height="50" relative="1" as="geometry">
            <mxPoint x="60" y="90.00000000000001" as="sourcePoint" />
            <mxPoint x="16.36363636363636" y="120.00000000000003" as="targetPoint" />
          </mxGeometry>
        </mxCell>
        <mxCell id="ysh0__bV-tm2-gGv3kF3-56" value="" style="group;fillColor=#eeeeee;strokeColor=#36393d;" vertex="1" connectable="0" parent="ysh0__bV-tm2-gGv3kF3-50">
          <mxGeometry y="30.000000000000007" width="16.36363636363636" height="90.00000000000001" as="geometry" />
        </mxCell>
        <mxCell id="ysh0__bV-tm2-gGv3kF3-57" value="" style="endArrow=none;html=1;rounded=0;fillColor=#eeeeee;strokeColor=#36393d;" edge="1" parent="ysh0__bV-tm2-gGv3kF3-56">
          <mxGeometry width="50" height="50" relative="1" as="geometry">
            <mxPoint y="90.00000000000001" as="sourcePoint" />
            <mxPoint as="targetPoint" />
          </mxGeometry>
        </mxCell>
        <mxCell id="ysh0__bV-tm2-gGv3kF3-58" value="" style="endArrow=none;html=1;rounded=0;fillColor=#eeeeee;strokeColor=#36393d;" edge="1" parent="ysh0__bV-tm2-gGv3kF3-56">
          <mxGeometry width="50" height="50" relative="1" as="geometry">
            <mxPoint x="16.36363636363636" y="90.00000000000001" as="sourcePoint" />
            <mxPoint x="16.36363636363636" as="targetPoint" />
          </mxGeometry>
        </mxCell>
        <mxCell id="ysh0__bV-tm2-gGv3kF3-59" value="" style="endArrow=none;html=1;rounded=0;fillColor=#eeeeee;strokeColor=#36393d;" edge="1" parent="ysh0__bV-tm2-gGv3kF3-56">
          <mxGeometry width="50" height="50" relative="1" as="geometry">
            <mxPoint x="16.36363636363636" y="90.00000000000001" as="sourcePoint" />
            <mxPoint y="90.00000000000001" as="targetPoint" />
          </mxGeometry>
        </mxCell>
        <mxCell id="ysh0__bV-tm2-gGv3kF3-60" value="" style="endArrow=none;html=1;rounded=0;fillColor=#eeeeee;strokeColor=#36393d;" edge="1" parent="ysh0__bV-tm2-gGv3kF3-56">
          <mxGeometry width="50" height="50" relative="1" as="geometry">
            <mxPoint as="sourcePoint" />
            <mxPoint x="16.36363636363636" as="targetPoint" />
          </mxGeometry>
        </mxCell>
        <mxCell id="ysh0__bV-tm2-gGv3kF3-61" value="" style="endArrow=none;html=1;rounded=0;" edge="1" parent="ysh0__bV-tm2-gGv3kF3-50">
          <mxGeometry width="50" height="50" relative="1" as="geometry">
            <mxPoint x="16.36363636363636" y="120.00000000000003" as="sourcePoint" />
            <mxPoint x="16.36363636363636" y="30.000000000000007" as="targetPoint" />
          </mxGeometry>
        </mxCell>
        <mxCell id="ysh0__bV-tm2-gGv3kF3-62" value="" style="group" vertex="1" connectable="0" parent="1">
          <mxGeometry x="650" y="-40" width="40" height="80" as="geometry" />
        </mxCell>
        <mxCell id="ysh0__bV-tm2-gGv3kF3-63" value="" style="endArrow=none;html=1;rounded=0;" edge="1" parent="ysh0__bV-tm2-gGv3kF3-62">
          <mxGeometry width="50" height="50" relative="1" as="geometry">
            <mxPoint y="20" as="sourcePoint" />
            <mxPoint x="29.09090909090909" as="targetPoint" />
          </mxGeometry>
        </mxCell>
        <mxCell id="ysh0__bV-tm2-gGv3kF3-64" value="" style="endArrow=none;html=1;rounded=0;" edge="1" parent="ysh0__bV-tm2-gGv3kF3-62">
          <mxGeometry width="50" height="50" relative="1" as="geometry">
            <mxPoint x="40" as="sourcePoint" />
            <mxPoint x="29.09090909090909" as="targetPoint" />
          </mxGeometry>
        </mxCell>
        <mxCell id="ysh0__bV-tm2-gGv3kF3-65" value="" style="endArrow=none;html=1;rounded=0;fillColor=#eeeeee;strokeColor=#36393d;" edge="1" parent="ysh0__bV-tm2-gGv3kF3-62">
          <mxGeometry width="50" height="50" relative="1" as="geometry">
            <mxPoint x="10.90909090909091" y="20" as="sourcePoint" />
            <mxPoint x="40" as="targetPoint" />
          </mxGeometry>
        </mxCell>
        <mxCell id="ysh0__bV-tm2-gGv3kF3-66" value="" style="endArrow=none;html=1;rounded=0;fillColor=#eeeeee;strokeColor=#36393d;" edge="1" parent="ysh0__bV-tm2-gGv3kF3-62">
          <mxGeometry width="50" height="50" relative="1" as="geometry">
            <mxPoint x="40" y="60" as="sourcePoint" />
            <mxPoint x="40" as="targetPoint" />
          </mxGeometry>
        </mxCell>
        <mxCell id="ysh0__bV-tm2-gGv3kF3-67" value="" style="endArrow=none;html=1;rounded=0;fillColor=#eeeeee;strokeColor=#36393d;" edge="1" parent="ysh0__bV-tm2-gGv3kF3-62">
          <mxGeometry width="50" height="50" relative="1" as="geometry">
            <mxPoint x="40" y="60" as="sourcePoint" />
            <mxPoint x="10.90909090909091" y="80" as="targetPoint" />
          </mxGeometry>
        </mxCell>
        <mxCell id="ysh0__bV-tm2-gGv3kF3-68" value="" style="group;fillColor=#eeeeee;strokeColor=#36393d;" vertex="1" connectable="0" parent="ysh0__bV-tm2-gGv3kF3-62">
          <mxGeometry y="20" width="10.90909090909091" height="60" as="geometry" />
        </mxCell>
        <mxCell id="ysh0__bV-tm2-gGv3kF3-69" value="" style="endArrow=none;html=1;rounded=0;fillColor=#eeeeee;strokeColor=#36393d;" edge="1" parent="ysh0__bV-tm2-gGv3kF3-68">
          <mxGeometry width="50" height="50" relative="1" as="geometry">
            <mxPoint y="60" as="sourcePoint" />
            <mxPoint as="targetPoint" />
          </mxGeometry>
        </mxCell>
        <mxCell id="ysh0__bV-tm2-gGv3kF3-70" value="" style="endArrow=none;html=1;rounded=0;fillColor=#eeeeee;strokeColor=#36393d;" edge="1" parent="ysh0__bV-tm2-gGv3kF3-68">
          <mxGeometry width="50" height="50" relative="1" as="geometry">
            <mxPoint x="10.90909090909091" y="60" as="sourcePoint" />
            <mxPoint x="10.90909090909091" as="targetPoint" />
          </mxGeometry>
        </mxCell>
        <mxCell id="ysh0__bV-tm2-gGv3kF3-71" value="" style="endArrow=none;html=1;rounded=0;fillColor=#eeeeee;strokeColor=#36393d;" edge="1" parent="ysh0__bV-tm2-gGv3kF3-68">
          <mxGeometry width="50" height="50" relative="1" as="geometry">
            <mxPoint x="10.90909090909091" y="60" as="sourcePoint" />
            <mxPoint y="60" as="targetPoint" />
          </mxGeometry>
        </mxCell>
        <mxCell id="ysh0__bV-tm2-gGv3kF3-72" value="" style="endArrow=none;html=1;rounded=0;fillColor=#eeeeee;strokeColor=#36393d;" edge="1" parent="ysh0__bV-tm2-gGv3kF3-68">
          <mxGeometry width="50" height="50" relative="1" as="geometry">
            <mxPoint as="sourcePoint" />
            <mxPoint x="10.90909090909091" as="targetPoint" />
          </mxGeometry>
        </mxCell>
        <mxCell id="ysh0__bV-tm2-gGv3kF3-73" value="" style="endArrow=none;html=1;rounded=0;" edge="1" parent="ysh0__bV-tm2-gGv3kF3-62">
          <mxGeometry width="50" height="50" relative="1" as="geometry">
            <mxPoint x="10.90909090909091" y="80" as="sourcePoint" />
            <mxPoint x="10.90909090909091" y="20" as="targetPoint" />
          </mxGeometry>
        </mxCell>
        <mxCell id="ysh0__bV-tm2-gGv3kF3-74" value="" style="group" vertex="1" connectable="0" parent="1">
          <mxGeometry x="1020" y="-120" width="70" height="160" as="geometry" />
        </mxCell>
        <mxCell id="ysh0__bV-tm2-gGv3kF3-75" value="" style="endArrow=none;html=1;rounded=0;" edge="1" parent="ysh0__bV-tm2-gGv3kF3-74">
          <mxGeometry width="50" height="50" relative="1" as="geometry">
            <mxPoint y="40" as="sourcePoint" />
            <mxPoint x="50.90909090909091" as="targetPoint" />
          </mxGeometry>
        </mxCell>
        <mxCell id="ysh0__bV-tm2-gGv3kF3-76" value="" style="endArrow=none;html=1;rounded=0;" edge="1" parent="ysh0__bV-tm2-gGv3kF3-74">
          <mxGeometry width="50" height="50" relative="1" as="geometry">
            <mxPoint x="70" as="sourcePoint" />
            <mxPoint x="50.90909090909091" as="targetPoint" />
          </mxGeometry>
        </mxCell>
        <mxCell id="ysh0__bV-tm2-gGv3kF3-77" value="" style="endArrow=none;html=1;rounded=0;fillColor=#eeeeee;strokeColor=#36393d;" edge="1" parent="ysh0__bV-tm2-gGv3kF3-74">
          <mxGeometry width="50" height="50" relative="1" as="geometry">
            <mxPoint x="19.09090909090909" y="40" as="sourcePoint" />
            <mxPoint x="70" as="targetPoint" />
          </mxGeometry>
        </mxCell>
        <mxCell id="ysh0__bV-tm2-gGv3kF3-78" value="" style="endArrow=none;html=1;rounded=0;fillColor=#eeeeee;strokeColor=#36393d;" edge="1" parent="ysh0__bV-tm2-gGv3kF3-74">
          <mxGeometry width="50" height="50" relative="1" as="geometry">
            <mxPoint x="70" y="120" as="sourcePoint" />
            <mxPoint x="70" as="targetPoint" />
          </mxGeometry>
        </mxCell>
        <mxCell id="ysh0__bV-tm2-gGv3kF3-79" value="" style="endArrow=none;html=1;rounded=0;fillColor=#eeeeee;strokeColor=#36393d;" edge="1" parent="ysh0__bV-tm2-gGv3kF3-74">
          <mxGeometry width="50" height="50" relative="1" as="geometry">
            <mxPoint x="70" y="120" as="sourcePoint" />
            <mxPoint x="19.09090909090909" y="160" as="targetPoint" />
          </mxGeometry>
        </mxCell>
        <mxCell id="ysh0__bV-tm2-gGv3kF3-80" value="" style="group;fillColor=#eeeeee;strokeColor=#36393d;" vertex="1" connectable="0" parent="ysh0__bV-tm2-gGv3kF3-74">
          <mxGeometry y="40" width="19.09090909090909" height="120" as="geometry" />
        </mxCell>
        <mxCell id="ysh0__bV-tm2-gGv3kF3-81" value="" style="endArrow=none;html=1;rounded=0;fillColor=#eeeeee;strokeColor=#36393d;" edge="1" parent="ysh0__bV-tm2-gGv3kF3-80">
          <mxGeometry width="50" height="50" relative="1" as="geometry">
            <mxPoint y="120" as="sourcePoint" />
            <mxPoint as="targetPoint" />
          </mxGeometry>
        </mxCell>
        <mxCell id="ysh0__bV-tm2-gGv3kF3-82" value="" style="endArrow=none;html=1;rounded=0;fillColor=#eeeeee;strokeColor=#36393d;" edge="1" parent="ysh0__bV-tm2-gGv3kF3-80">
          <mxGeometry width="50" height="50" relative="1" as="geometry">
            <mxPoint x="19.09090909090909" y="120" as="sourcePoint" />
            <mxPoint x="19.09090909090909" as="targetPoint" />
          </mxGeometry>
        </mxCell>
        <mxCell id="ysh0__bV-tm2-gGv3kF3-83" value="" style="endArrow=none;html=1;rounded=0;fillColor=#eeeeee;strokeColor=#36393d;" edge="1" parent="ysh0__bV-tm2-gGv3kF3-80">
          <mxGeometry width="50" height="50" relative="1" as="geometry">
            <mxPoint x="19.09090909090909" y="120" as="sourcePoint" />
            <mxPoint y="120" as="targetPoint" />
          </mxGeometry>
        </mxCell>
        <mxCell id="ysh0__bV-tm2-gGv3kF3-84" value="" style="endArrow=none;html=1;rounded=0;fillColor=#eeeeee;strokeColor=#36393d;" edge="1" parent="ysh0__bV-tm2-gGv3kF3-80">
          <mxGeometry width="50" height="50" relative="1" as="geometry">
            <mxPoint as="sourcePoint" />
            <mxPoint x="19.09090909090909" as="targetPoint" />
          </mxGeometry>
        </mxCell>
        <mxCell id="ysh0__bV-tm2-gGv3kF3-85" value="" style="endArrow=none;html=1;rounded=0;" edge="1" parent="ysh0__bV-tm2-gGv3kF3-74">
          <mxGeometry width="50" height="50" relative="1" as="geometry">
            <mxPoint x="19.09090909090909" y="160" as="sourcePoint" />
            <mxPoint x="19.09090909090909" y="40" as="targetPoint" />
          </mxGeometry>
        </mxCell>
        <mxCell id="ysh0__bV-tm2-gGv3kF3-86" value="" style="group" vertex="1" connectable="0" parent="1">
          <mxGeometry x="920" y="-78" width="60" height="120" as="geometry" />
        </mxCell>
        <mxCell id="ysh0__bV-tm2-gGv3kF3-87" value="" style="endArrow=none;html=1;rounded=0;" edge="1" parent="ysh0__bV-tm2-gGv3kF3-86">
          <mxGeometry width="50" height="50" relative="1" as="geometry">
            <mxPoint y="30.000000000000007" as="sourcePoint" />
            <mxPoint x="43.63636363636363" as="targetPoint" />
          </mxGeometry>
        </mxCell>
        <mxCell id="ysh0__bV-tm2-gGv3kF3-88" value="" style="endArrow=none;html=1;rounded=0;" edge="1" parent="ysh0__bV-tm2-gGv3kF3-86">
          <mxGeometry width="50" height="50" relative="1" as="geometry">
            <mxPoint x="60" as="sourcePoint" />
            <mxPoint x="43.63636363636363" as="targetPoint" />
          </mxGeometry>
        </mxCell>
        <mxCell id="ysh0__bV-tm2-gGv3kF3-89" value="" style="endArrow=none;html=1;rounded=0;fillColor=#eeeeee;strokeColor=#36393d;" edge="1" parent="ysh0__bV-tm2-gGv3kF3-86">
          <mxGeometry width="50" height="50" relative="1" as="geometry">
            <mxPoint x="16.36363636363636" y="30.000000000000007" as="sourcePoint" />
            <mxPoint x="60" as="targetPoint" />
          </mxGeometry>
        </mxCell>
        <mxCell id="ysh0__bV-tm2-gGv3kF3-90" value="" style="endArrow=none;html=1;rounded=0;fillColor=#eeeeee;strokeColor=#36393d;" edge="1" parent="ysh0__bV-tm2-gGv3kF3-86">
          <mxGeometry width="50" height="50" relative="1" as="geometry">
            <mxPoint x="60" y="90.00000000000001" as="sourcePoint" />
            <mxPoint x="60" as="targetPoint" />
          </mxGeometry>
        </mxCell>
        <mxCell id="ysh0__bV-tm2-gGv3kF3-91" value="" style="endArrow=none;html=1;rounded=0;fillColor=#eeeeee;strokeColor=#36393d;" edge="1" parent="ysh0__bV-tm2-gGv3kF3-86">
          <mxGeometry width="50" height="50" relative="1" as="geometry">
            <mxPoint x="60" y="90.00000000000001" as="sourcePoint" />
            <mxPoint x="16.36363636363636" y="120.00000000000003" as="targetPoint" />
          </mxGeometry>
        </mxCell>
        <mxCell id="ysh0__bV-tm2-gGv3kF3-92" value="" style="group;fillColor=#eeeeee;strokeColor=#36393d;" vertex="1" connectable="0" parent="ysh0__bV-tm2-gGv3kF3-86">
          <mxGeometry y="30.000000000000007" width="16.36363636363636" height="90.00000000000001" as="geometry" />
        </mxCell>
        <mxCell id="ysh0__bV-tm2-gGv3kF3-93" value="" style="endArrow=none;html=1;rounded=0;fillColor=#eeeeee;strokeColor=#36393d;" edge="1" parent="ysh0__bV-tm2-gGv3kF3-92">
          <mxGeometry width="50" height="50" relative="1" as="geometry">
            <mxPoint y="90.00000000000001" as="sourcePoint" />
            <mxPoint as="targetPoint" />
          </mxGeometry>
        </mxCell>
        <mxCell id="ysh0__bV-tm2-gGv3kF3-94" value="" style="endArrow=none;html=1;rounded=0;fillColor=#eeeeee;strokeColor=#36393d;" edge="1" parent="ysh0__bV-tm2-gGv3kF3-92">
          <mxGeometry width="50" height="50" relative="1" as="geometry">
            <mxPoint x="16.36363636363636" y="90.00000000000001" as="sourcePoint" />
            <mxPoint x="16.36363636363636" as="targetPoint" />
          </mxGeometry>
        </mxCell>
        <mxCell id="ysh0__bV-tm2-gGv3kF3-95" value="" style="endArrow=none;html=1;rounded=0;fillColor=#eeeeee;strokeColor=#36393d;" edge="1" parent="ysh0__bV-tm2-gGv3kF3-92">
          <mxGeometry width="50" height="50" relative="1" as="geometry">
            <mxPoint x="16.36363636363636" y="90.00000000000001" as="sourcePoint" />
            <mxPoint y="90.00000000000001" as="targetPoint" />
          </mxGeometry>
        </mxCell>
        <mxCell id="ysh0__bV-tm2-gGv3kF3-96" value="" style="endArrow=none;html=1;rounded=0;fillColor=#eeeeee;strokeColor=#36393d;" edge="1" parent="ysh0__bV-tm2-gGv3kF3-92">
          <mxGeometry width="50" height="50" relative="1" as="geometry">
            <mxPoint as="sourcePoint" />
            <mxPoint x="16.36363636363636" as="targetPoint" />
          </mxGeometry>
        </mxCell>
        <mxCell id="ysh0__bV-tm2-gGv3kF3-97" value="" style="endArrow=none;html=1;rounded=0;" edge="1" parent="ysh0__bV-tm2-gGv3kF3-86">
          <mxGeometry width="50" height="50" relative="1" as="geometry">
            <mxPoint x="16.36363636363636" y="120.00000000000003" as="sourcePoint" />
            <mxPoint x="16.36363636363636" y="30.000000000000007" as="targetPoint" />
          </mxGeometry>
        </mxCell>
        <mxCell id="ysh0__bV-tm2-gGv3kF3-98" value="" style="group" vertex="1" connectable="0" parent="1">
          <mxGeometry x="840" y="-40" width="40" height="80" as="geometry" />
        </mxCell>
        <mxCell id="ysh0__bV-tm2-gGv3kF3-99" value="" style="endArrow=none;html=1;rounded=0;" edge="1" parent="ysh0__bV-tm2-gGv3kF3-98">
          <mxGeometry width="50" height="50" relative="1" as="geometry">
            <mxPoint y="20" as="sourcePoint" />
            <mxPoint x="29.09090909090909" as="targetPoint" />
          </mxGeometry>
        </mxCell>
        <mxCell id="ysh0__bV-tm2-gGv3kF3-100" value="" style="endArrow=none;html=1;rounded=0;" edge="1" parent="ysh0__bV-tm2-gGv3kF3-98">
          <mxGeometry width="50" height="50" relative="1" as="geometry">
            <mxPoint x="40" as="sourcePoint" />
            <mxPoint x="29.09090909090909" as="targetPoint" />
          </mxGeometry>
        </mxCell>
        <mxCell id="ysh0__bV-tm2-gGv3kF3-101" value="" style="endArrow=none;html=1;rounded=0;fillColor=#eeeeee;strokeColor=#36393d;" edge="1" parent="ysh0__bV-tm2-gGv3kF3-98">
          <mxGeometry width="50" height="50" relative="1" as="geometry">
            <mxPoint x="10.90909090909091" y="20" as="sourcePoint" />
            <mxPoint x="40" as="targetPoint" />
          </mxGeometry>
        </mxCell>
        <mxCell id="ysh0__bV-tm2-gGv3kF3-102" value="" style="endArrow=none;html=1;rounded=0;fillColor=#eeeeee;strokeColor=#36393d;" edge="1" parent="ysh0__bV-tm2-gGv3kF3-98">
          <mxGeometry width="50" height="50" relative="1" as="geometry">
            <mxPoint x="40" y="60" as="sourcePoint" />
            <mxPoint x="40" as="targetPoint" />
          </mxGeometry>
        </mxCell>
        <mxCell id="ysh0__bV-tm2-gGv3kF3-103" value="" style="endArrow=none;html=1;rounded=0;fillColor=#eeeeee;strokeColor=#36393d;" edge="1" parent="ysh0__bV-tm2-gGv3kF3-98">
          <mxGeometry width="50" height="50" relative="1" as="geometry">
            <mxPoint x="40" y="60" as="sourcePoint" />
            <mxPoint x="10.90909090909091" y="80" as="targetPoint" />
          </mxGeometry>
        </mxCell>
        <mxCell id="ysh0__bV-tm2-gGv3kF3-104" value="" style="group;fillColor=#eeeeee;strokeColor=#36393d;" vertex="1" connectable="0" parent="ysh0__bV-tm2-gGv3kF3-98">
          <mxGeometry y="20" width="10.90909090909091" height="60" as="geometry" />
        </mxCell>
        <mxCell id="ysh0__bV-tm2-gGv3kF3-105" value="" style="endArrow=none;html=1;rounded=0;fillColor=#eeeeee;strokeColor=#36393d;" edge="1" parent="ysh0__bV-tm2-gGv3kF3-104">
          <mxGeometry width="50" height="50" relative="1" as="geometry">
            <mxPoint y="60" as="sourcePoint" />
            <mxPoint as="targetPoint" />
          </mxGeometry>
        </mxCell>
        <mxCell id="ysh0__bV-tm2-gGv3kF3-106" value="" style="endArrow=none;html=1;rounded=0;fillColor=#eeeeee;strokeColor=#36393d;" edge="1" parent="ysh0__bV-tm2-gGv3kF3-104">
          <mxGeometry width="50" height="50" relative="1" as="geometry">
            <mxPoint x="10.90909090909091" y="60" as="sourcePoint" />
            <mxPoint x="10.90909090909091" as="targetPoint" />
          </mxGeometry>
        </mxCell>
        <mxCell id="ysh0__bV-tm2-gGv3kF3-107" value="" style="endArrow=none;html=1;rounded=0;fillColor=#eeeeee;strokeColor=#36393d;" edge="1" parent="ysh0__bV-tm2-gGv3kF3-104">
          <mxGeometry width="50" height="50" relative="1" as="geometry">
            <mxPoint x="10.90909090909091" y="60" as="sourcePoint" />
            <mxPoint y="60" as="targetPoint" />
          </mxGeometry>
        </mxCell>
        <mxCell id="ysh0__bV-tm2-gGv3kF3-108" value="" style="endArrow=none;html=1;rounded=0;fillColor=#eeeeee;strokeColor=#36393d;" edge="1" parent="ysh0__bV-tm2-gGv3kF3-104">
          <mxGeometry width="50" height="50" relative="1" as="geometry">
            <mxPoint as="sourcePoint" />
            <mxPoint x="10.90909090909091" as="targetPoint" />
          </mxGeometry>
        </mxCell>
        <mxCell id="ysh0__bV-tm2-gGv3kF3-109" value="" style="endArrow=none;html=1;rounded=0;" edge="1" parent="ysh0__bV-tm2-gGv3kF3-98">
          <mxGeometry width="50" height="50" relative="1" as="geometry">
            <mxPoint x="10.90909090909091" y="80" as="sourcePoint" />
            <mxPoint x="10.90909090909091" y="20" as="targetPoint" />
          </mxGeometry>
        </mxCell>
        <mxCell id="ysh0__bV-tm2-gGv3kF3-128" style="edgeStyle=orthogonalEdgeStyle;rounded=0;orthogonalLoop=1;jettySize=auto;html=1;entryX=0.5;entryY=0;entryDx=0;entryDy=0;" edge="1" parent="1" source="ysh0__bV-tm2-gGv3kF3-113" target="ysh0__bV-tm2-gGv3kF3-125">
          <mxGeometry relative="1" as="geometry" />
        </mxCell>
        <mxCell id="ysh0__bV-tm2-gGv3kF3-113" value="Data Preprocessing" style="rounded=1;whiteSpace=wrap;html=1;" vertex="1" parent="1">
          <mxGeometry x="40" y="130" width="120" height="30" as="geometry" />
        </mxCell>
        <mxCell id="ysh0__bV-tm2-gGv3kF3-132" style="edgeStyle=orthogonalEdgeStyle;rounded=0;orthogonalLoop=1;jettySize=auto;html=1;exitX=0.5;exitY=1;exitDx=0;exitDy=0;entryX=0.5;entryY=0;entryDx=0;entryDy=0;" edge="1" parent="1" source="ysh0__bV-tm2-gGv3kF3-114" target="ysh0__bV-tm2-gGv3kF3-113">
          <mxGeometry relative="1" as="geometry" />
        </mxCell>
        <mxCell id="ysh0__bV-tm2-gGv3kF3-114" value="Start" style="ellipse;whiteSpace=wrap;html=1;" vertex="1" parent="1">
          <mxGeometry x="55" y="90" width="90" height="20" as="geometry" />
        </mxCell>
        <mxCell id="ysh0__bV-tm2-gGv3kF3-116" value="" style="endArrow=none;html=1;rounded=0;entryX=0.012;entryY=0.545;entryDx=0;entryDy=0;entryPerimeter=0;exitX=1.004;exitY=0.144;exitDx=0;exitDy=0;exitPerimeter=0;" edge="1" parent="1" source="ysh0__bV-tm2-gGv3kF3-113" target="ysh0__bV-tm2-gGv3kF3-117">
          <mxGeometry width="50" height="50" relative="1" as="geometry">
            <mxPoint x="160" y="136" as="sourcePoint" />
            <mxPoint x="200" y="141" as="targetPoint" />
          </mxGeometry>
        </mxCell>
        <mxCell id="ysh0__bV-tm2-gGv3kF3-117" value="Normalization" style="text;html=1;align=center;verticalAlign=middle;resizable=0;points=[];autosize=1;strokeColor=none;fillColor=none;" vertex="1" parent="1">
          <mxGeometry x="185" y="107" width="100" height="30" as="geometry" />
        </mxCell>
        <mxCell id="ysh0__bV-tm2-gGv3kF3-118" value="" style="endArrow=none;html=1;rounded=0;exitX=1.004;exitY=0.398;exitDx=0;exitDy=0;exitPerimeter=0;entryX=0;entryY=0.56;entryDx=0;entryDy=0;entryPerimeter=0;" edge="1" parent="1" source="ysh0__bV-tm2-gGv3kF3-113" target="ysh0__bV-tm2-gGv3kF3-119">
          <mxGeometry width="50" height="50" relative="1" as="geometry">
            <mxPoint x="160" y="156" as="sourcePoint" />
            <mxPoint x="198" y="156" as="targetPoint" />
          </mxGeometry>
        </mxCell>
        <mxCell id="ysh0__bV-tm2-gGv3kF3-119" value="Shuffling" style="text;html=1;align=center;verticalAlign=middle;resizable=0;points=[];autosize=1;strokeColor=none;fillColor=none;" vertex="1" parent="1">
          <mxGeometry x="187" y="120" width="70" height="30" as="geometry" />
        </mxCell>
        <mxCell id="ysh0__bV-tm2-gGv3kF3-120" value="" style="endArrow=none;html=1;rounded=0;exitX=1.001;exitY=0.593;exitDx=0;exitDy=0;exitPerimeter=0;entryX=0.028;entryY=0.513;entryDx=0;entryDy=0;entryPerimeter=0;" edge="1" parent="1" source="ysh0__bV-tm2-gGv3kF3-113" target="ysh0__bV-tm2-gGv3kF3-121">
          <mxGeometry width="50" height="50" relative="1" as="geometry">
            <mxPoint x="160" y="170" as="sourcePoint" />
            <mxPoint x="180" y="170" as="targetPoint" />
          </mxGeometry>
        </mxCell>
        <mxCell id="ysh0__bV-tm2-gGv3kF3-121" value="Batch Processing" style="text;html=1;align=center;verticalAlign=middle;resizable=0;points=[];autosize=1;strokeColor=none;fillColor=none;" vertex="1" parent="1">
          <mxGeometry x="185" y="140" width="120" height="30" as="geometry" />
        </mxCell>
        <mxCell id="ysh0__bV-tm2-gGv3kF3-122" value="" style="endArrow=none;html=1;rounded=0;entryX=0.016;entryY=0.516;entryDx=0;entryDy=0;entryPerimeter=0;exitX=0.993;exitY=0.832;exitDx=0;exitDy=0;exitPerimeter=0;" edge="1" parent="1" source="ysh0__bV-tm2-gGv3kF3-113" target="ysh0__bV-tm2-gGv3kF3-123">
          <mxGeometry width="50" height="50" relative="1" as="geometry">
            <mxPoint x="161" y="180" as="sourcePoint" />
            <mxPoint x="168" y="251" as="targetPoint" />
          </mxGeometry>
        </mxCell>
        <mxCell id="ysh0__bV-tm2-gGv3kF3-123" value="Augmentation" style="text;html=1;align=center;verticalAlign=middle;resizable=0;points=[];autosize=1;strokeColor=none;fillColor=none;" vertex="1" parent="1">
          <mxGeometry x="185" y="151" width="100" height="30" as="geometry" />
        </mxCell>
        <mxCell id="ysh0__bV-tm2-gGv3kF3-130" style="edgeStyle=orthogonalEdgeStyle;rounded=0;orthogonalLoop=1;jettySize=auto;html=1;exitX=0.5;exitY=1;exitDx=0;exitDy=0;entryX=0.5;entryY=0;entryDx=0;entryDy=0;" edge="1" parent="1" source="ysh0__bV-tm2-gGv3kF3-125" target="ysh0__bV-tm2-gGv3kF3-126">
          <mxGeometry relative="1" as="geometry" />
        </mxCell>
        <mxCell id="ysh0__bV-tm2-gGv3kF3-125" value="Model Building and Training" style="rounded=1;whiteSpace=wrap;html=1;" vertex="1" parent="1">
          <mxGeometry x="40" y="197" width="120" height="39" as="geometry" />
        </mxCell>
        <mxCell id="ysh0__bV-tm2-gGv3kF3-131" style="edgeStyle=orthogonalEdgeStyle;rounded=0;orthogonalLoop=1;jettySize=auto;html=1;exitX=0.5;exitY=1;exitDx=0;exitDy=0;entryX=0.5;entryY=0;entryDx=0;entryDy=0;" edge="1" parent="1" source="ysh0__bV-tm2-gGv3kF3-126" target="ysh0__bV-tm2-gGv3kF3-127">
          <mxGeometry relative="1" as="geometry" />
        </mxCell>
        <mxCell id="ysh0__bV-tm2-gGv3kF3-126" value="Model Testing" style="rounded=1;whiteSpace=wrap;html=1;" vertex="1" parent="1">
          <mxGeometry x="40" y="260" width="120" height="20" as="geometry" />
        </mxCell>
        <mxCell id="ysh0__bV-tm2-gGv3kF3-140" style="edgeStyle=orthogonalEdgeStyle;rounded=0;orthogonalLoop=1;jettySize=auto;html=1;exitX=0.5;exitY=1;exitDx=0;exitDy=0;entryX=0.5;entryY=0;entryDx=0;entryDy=0;" edge="1" parent="1" source="ysh0__bV-tm2-gGv3kF3-127" target="ysh0__bV-tm2-gGv3kF3-138">
          <mxGeometry relative="1" as="geometry" />
        </mxCell>
        <mxCell id="ysh0__bV-tm2-gGv3kF3-127" value="Model Visualization" style="rounded=1;whiteSpace=wrap;html=1;" vertex="1" parent="1">
          <mxGeometry x="40" y="300" width="120" height="20" as="geometry" />
        </mxCell>
        <mxCell id="ysh0__bV-tm2-gGv3kF3-133" value="Generator" style="text;html=1;align=center;verticalAlign=middle;resizable=0;points=[];autosize=1;strokeColor=none;fillColor=none;" vertex="1" parent="1">
          <mxGeometry x="182" y="181" width="80" height="30" as="geometry" />
        </mxCell>
        <mxCell id="ysh0__bV-tm2-gGv3kF3-134" value="Discriminator" style="text;html=1;align=center;verticalAlign=middle;resizable=0;points=[];autosize=1;strokeColor=none;fillColor=none;" vertex="1" parent="1">
          <mxGeometry x="185" y="197" width="90" height="30" as="geometry" />
        </mxCell>
        <mxCell id="ysh0__bV-tm2-gGv3kF3-135" value="Loss function" style="text;html=1;align=center;verticalAlign=middle;resizable=0;points=[];autosize=1;strokeColor=none;fillColor=none;" vertex="1" parent="1">
          <mxGeometry x="186" y="211" width="90" height="30" as="geometry" />
        </mxCell>
        <mxCell id="ysh0__bV-tm2-gGv3kF3-136" value="Backpropagation" style="text;html=1;align=center;verticalAlign=middle;resizable=0;points=[];autosize=1;strokeColor=none;fillColor=none;" vertex="1" parent="1">
          <mxGeometry x="186" y="225" width="110" height="30" as="geometry" />
        </mxCell>
        <mxCell id="ysh0__bV-tm2-gGv3kF3-137" value="End" style="ellipse;whiteSpace=wrap;html=1;" vertex="1" parent="1">
          <mxGeometry x="55" y="420" width="90" height="20" as="geometry" />
        </mxCell>
        <mxCell id="ysh0__bV-tm2-gGv3kF3-141" style="edgeStyle=orthogonalEdgeStyle;rounded=0;orthogonalLoop=1;jettySize=auto;html=1;exitX=0.5;exitY=1;exitDx=0;exitDy=0;entryX=0.5;entryY=0;entryDx=0;entryDy=0;" edge="1" parent="1" source="ysh0__bV-tm2-gGv3kF3-138" target="ysh0__bV-tm2-gGv3kF3-139">
          <mxGeometry relative="1" as="geometry" />
        </mxCell>
        <mxCell id="ysh0__bV-tm2-gGv3kF3-138" value="Model Export" style="rounded=1;whiteSpace=wrap;html=1;" vertex="1" parent="1">
          <mxGeometry x="40" y="340" width="120" height="20" as="geometry" />
        </mxCell>
        <mxCell id="ysh0__bV-tm2-gGv3kF3-142" style="edgeStyle=orthogonalEdgeStyle;rounded=0;orthogonalLoop=1;jettySize=auto;html=1;exitX=0.5;exitY=1;exitDx=0;exitDy=0;entryX=0.5;entryY=0;entryDx=0;entryDy=0;" edge="1" parent="1" source="ysh0__bV-tm2-gGv3kF3-139" target="ysh0__bV-tm2-gGv3kF3-137">
          <mxGeometry relative="1" as="geometry" />
        </mxCell>
        <mxCell id="ysh0__bV-tm2-gGv3kF3-139" value="Model Deployment" style="rounded=1;whiteSpace=wrap;html=1;" vertex="1" parent="1">
          <mxGeometry x="40" y="380" width="120" height="20" as="geometry" />
        </mxCell>
        <mxCell id="ysh0__bV-tm2-gGv3kF3-143" value="" style="endArrow=none;html=1;rounded=0;entryX=0.007;entryY=0.58;entryDx=0;entryDy=0;entryPerimeter=0;exitX=0.997;exitY=0.135;exitDx=0;exitDy=0;exitPerimeter=0;" edge="1" parent="1" source="ysh0__bV-tm2-gGv3kF3-125" target="ysh0__bV-tm2-gGv3kF3-133">
          <mxGeometry width="50" height="50" relative="1" as="geometry">
            <mxPoint x="160" y="211" as="sourcePoint" />
            <mxPoint x="186" y="191" as="targetPoint" />
          </mxGeometry>
        </mxCell>
        <mxCell id="ysh0__bV-tm2-gGv3kF3-144" value="" style="endArrow=none;html=1;rounded=0;entryX=-0.005;entryY=0.478;entryDx=0;entryDy=0;entryPerimeter=0;exitX=1.001;exitY=0.353;exitDx=0;exitDy=0;exitPerimeter=0;" edge="1" parent="1" source="ysh0__bV-tm2-gGv3kF3-125" target="ysh0__bV-tm2-gGv3kF3-134">
          <mxGeometry width="50" height="50" relative="1" as="geometry">
            <mxPoint x="160" y="210" as="sourcePoint" />
            <mxPoint x="196" y="204" as="targetPoint" />
          </mxGeometry>
        </mxCell>
        <mxCell id="ysh0__bV-tm2-gGv3kF3-145" value="" style="endArrow=none;html=1;rounded=0;entryX=0.006;entryY=0.496;entryDx=0;entryDy=0;entryPerimeter=0;exitX=1.002;exitY=0.612;exitDx=0;exitDy=0;exitPerimeter=0;" edge="1" parent="1" source="ysh0__bV-tm2-gGv3kF3-125" target="ysh0__bV-tm2-gGv3kF3-135">
          <mxGeometry width="50" height="50" relative="1" as="geometry">
            <mxPoint x="170" y="221" as="sourcePoint" />
            <mxPoint x="197" y="219" as="targetPoint" />
          </mxGeometry>
        </mxCell>
        <mxCell id="ysh0__bV-tm2-gGv3kF3-146" value="" style="endArrow=none;html=1;rounded=0;entryX=0.007;entryY=0.473;entryDx=0;entryDy=0;entryPerimeter=0;exitX=1.006;exitY=0.835;exitDx=0;exitDy=0;exitPerimeter=0;" edge="1" parent="1" source="ysh0__bV-tm2-gGv3kF3-125" target="ysh0__bV-tm2-gGv3kF3-136">
          <mxGeometry width="50" height="50" relative="1" as="geometry">
            <mxPoint x="160" y="230" as="sourcePoint" />
            <mxPoint x="201" y="236" as="targetPoint" />
          </mxGeometry>
        </mxCell>
        <mxCell id="ysh0__bV-tm2-gGv3kF3-147" value="Process Flow" style="text;html=1;align=center;verticalAlign=middle;resizable=0;points=[];autosize=1;strokeColor=none;fillColor=none;fontStyle=1;fontSize=15;horizontal=1;labelBackgroundColor=none;labelBorderColor=none;textShadow=0;" vertex="1" parent="1">
          <mxGeometry x="45" y="38" width="110" height="30" as="geometry" />
        </mxCell>
        <mxCell id="ysh0__bV-tm2-gGv3kF3-148" value="Model Architecture" style="text;html=1;align=center;verticalAlign=middle;resizable=0;points=[];autosize=1;strokeColor=none;fillColor=none;fontStyle=1;fontSize=17;" vertex="1" parent="1">
          <mxGeometry x="1170" y="-320" width="160" height="30" as="geometry" />
        </mxCell>
        <mxCell id="ysh0__bV-tm2-gGv3kF3-149" value="Down&lt;span style=&quot;background-color: transparent; color: light-dark(rgb(0, 0, 0), rgb(255, 255, 255));&quot;&gt;sample 1&lt;/span&gt;&lt;div&gt;&lt;span style=&quot;background-color: transparent; color: light-dark(rgb(0, 0, 0), rgb(255, 255, 255));&quot;&gt;128 x 128 x 64&lt;/span&gt;&lt;/div&gt;" style="text;html=1;align=center;verticalAlign=middle;resizable=0;points=[];autosize=1;strokeColor=none;fillColor=none;rotation=0;horizontal=1;" vertex="1" parent="1">
          <mxGeometry x="425" y="-160" width="100" height="40" as="geometry" />
        </mxCell>
        <mxCell id="ysh0__bV-tm2-gGv3kF3-150" value="Downsample 2&lt;div&gt;64 x 64 x 128&lt;/div&gt;" style="text;html=1;align=center;verticalAlign=middle;resizable=0;points=[];autosize=1;strokeColor=none;fillColor=none;rotation=0;horizontal=1;" vertex="1" parent="1">
          <mxGeometry x="530" y="-120" width="100" height="40" as="geometry" />
        </mxCell>
        <mxCell id="ysh0__bV-tm2-gGv3kF3-151" value="Downsample 3&lt;div&gt;32 x 32 x 256&lt;/div&gt;" style="text;html=1;align=center;verticalAlign=middle;resizable=0;points=[];autosize=1;strokeColor=none;fillColor=none;horizontal=1;" vertex="1" parent="1">
          <mxGeometry x="620" y="-80" width="100" height="40" as="geometry" />
        </mxCell>
        <mxCell id="ysh0__bV-tm2-gGv3kF3-152" value="Upsample 2&lt;div&gt;128 x 128 x 192&lt;/div&gt;" style="text;html=1;align=center;verticalAlign=middle;resizable=0;points=[];autosize=1;strokeColor=none;fillColor=none;horizontal=1;rotation=0;" vertex="1" parent="1">
          <mxGeometry x="880" y="-120" width="110" height="40" as="geometry" />
        </mxCell>
        <mxCell id="ysh0__bV-tm2-gGv3kF3-154" value="Upsample 3&lt;div&gt;128 x 128 x 128&lt;/div&gt;" style="text;html=1;align=center;verticalAlign=middle;resizable=0;points=[];autosize=1;strokeColor=none;fillColor=none;horizontal=1;" vertex="1" parent="1">
          <mxGeometry x="990" y="-157" width="110" height="40" as="geometry" />
        </mxCell>
        <mxCell id="ysh0__bV-tm2-gGv3kF3-155" value="Upsample 1&lt;div&gt;64 x 64 x 256&lt;/div&gt;" style="text;html=1;align=center;verticalAlign=middle;resizable=0;points=[];autosize=1;strokeColor=none;fillColor=none;rotation=0;" vertex="1" parent="1">
          <mxGeometry x="790" y="-80" width="100" height="40" as="geometry" />
        </mxCell>
        <mxCell id="ysh0__bV-tm2-gGv3kF3-158" value="" style="edgeStyle=none;orthogonalLoop=1;jettySize=auto;html=1;rounded=0;dashed=1;dashPattern=1 2;" edge="1" parent="1">
          <mxGeometry width="100" relative="1" as="geometry">
            <mxPoint x="660" y="40" as="sourcePoint" />
            <mxPoint x="850" y="40" as="targetPoint" />
            <Array as="points">
              <mxPoint x="660" y="90" />
              <mxPoint x="850" y="90" />
            </Array>
          </mxGeometry>
        </mxCell>
        <mxCell id="ysh0__bV-tm2-gGv3kF3-159" value="" style="edgeStyle=none;orthogonalLoop=1;jettySize=auto;html=1;rounded=0;dashed=1;dashPattern=1 2;" edge="1" parent="1">
          <mxGeometry width="100" relative="1" as="geometry">
            <mxPoint x="564" y="40" as="sourcePoint" />
            <mxPoint x="938" y="40" as="targetPoint" />
            <Array as="points">
              <mxPoint x="564" y="100" />
              <mxPoint x="938" y="100" />
            </Array>
          </mxGeometry>
        </mxCell>
        <mxCell id="ysh0__bV-tm2-gGv3kF3-161" value="" style="edgeStyle=none;orthogonalLoop=1;jettySize=auto;html=1;rounded=0;dashed=1;dashPattern=1 2;" edge="1" parent="1">
          <mxGeometry width="100" relative="1" as="geometry">
            <mxPoint x="460" y="40" as="sourcePoint" />
            <mxPoint x="1040" y="40" as="targetPoint" />
            <Array as="points">
              <mxPoint x="460" y="110" />
              <mxPoint x="1040" y="110" />
            </Array>
          </mxGeometry>
        </mxCell>
        <mxCell id="ysh0__bV-tm2-gGv3kF3-163" value="Skip connections" style="text;html=1;align=center;verticalAlign=middle;resizable=0;points=[];autosize=1;strokeColor=#666666;fillColor=#f5f5f5;fontSize=9;fontColor=#333333;rounded=1;" vertex="1" parent="1">
          <mxGeometry x="705" y="90" width="90" height="20" as="geometry" />
        </mxCell>
        <mxCell id="ysh0__bV-tm2-gGv3kF3-164" value="Input&amp;nbsp;&lt;div&gt;Image&lt;/div&gt;&lt;div&gt;256 x 256 x 1&lt;/div&gt;" style="text;html=1;align=center;verticalAlign=middle;resizable=0;points=[];autosize=1;strokeColor=none;fillColor=none;" vertex="1" parent="1">
          <mxGeometry x="240" y="-30" width="100" height="60" as="geometry" />
        </mxCell>
        <mxCell id="ysh0__bV-tm2-gGv3kF3-165" value="Output&amp;nbsp;&lt;div&gt;Image&lt;/div&gt;&lt;div&gt;256 x 256 x 1&lt;/div&gt;" style="text;html=1;align=center;verticalAlign=middle;resizable=0;points=[];autosize=1;strokeColor=none;fillColor=none;" vertex="1" parent="1">
          <mxGeometry x="1170" y="-29" width="100" height="60" as="geometry" />
        </mxCell>
        <mxCell id="ysh0__bV-tm2-gGv3kF3-168" value="" style="edgeStyle=none;orthogonalLoop=1;jettySize=auto;html=1;rounded=0;" edge="1" parent="1">
          <mxGeometry width="100" relative="1" as="geometry">
            <mxPoint x="1120" y="1" as="sourcePoint" />
            <mxPoint x="1160" y="1" as="targetPoint" />
            <Array as="points" />
          </mxGeometry>
        </mxCell>
        <mxCell id="ysh0__bV-tm2-gGv3kF3-171" value="Generator" style="text;html=1;align=center;verticalAlign=middle;resizable=0;points=[];autosize=1;strokeColor=none;fillColor=none;fontSize=19;fontStyle=1" vertex="1" parent="1">
          <mxGeometry x="665" y="-197" width="110" height="40" as="geometry" />
        </mxCell>
        <mxCell id="ysh0__bV-tm2-gGv3kF3-172" value="" style="group" vertex="1" connectable="0" parent="1">
          <mxGeometry x="439" y="200" width="70" height="160" as="geometry" />
        </mxCell>
        <mxCell id="ysh0__bV-tm2-gGv3kF3-173" value="" style="endArrow=none;html=1;rounded=0;" edge="1" parent="ysh0__bV-tm2-gGv3kF3-172">
          <mxGeometry width="50" height="50" relative="1" as="geometry">
            <mxPoint y="40" as="sourcePoint" />
            <mxPoint x="50.90909090909091" as="targetPoint" />
          </mxGeometry>
        </mxCell>
        <mxCell id="ysh0__bV-tm2-gGv3kF3-174" value="" style="endArrow=none;html=1;rounded=0;" edge="1" parent="ysh0__bV-tm2-gGv3kF3-172">
          <mxGeometry width="50" height="50" relative="1" as="geometry">
            <mxPoint x="70" as="sourcePoint" />
            <mxPoint x="50.90909090909091" as="targetPoint" />
          </mxGeometry>
        </mxCell>
        <mxCell id="ysh0__bV-tm2-gGv3kF3-175" value="" style="endArrow=none;html=1;rounded=0;fillColor=#eeeeee;strokeColor=#36393d;" edge="1" parent="ysh0__bV-tm2-gGv3kF3-172">
          <mxGeometry width="50" height="50" relative="1" as="geometry">
            <mxPoint x="19.09090909090909" y="40" as="sourcePoint" />
            <mxPoint x="70" as="targetPoint" />
          </mxGeometry>
        </mxCell>
        <mxCell id="ysh0__bV-tm2-gGv3kF3-176" value="" style="endArrow=none;html=1;rounded=0;fillColor=#eeeeee;strokeColor=#36393d;" edge="1" parent="ysh0__bV-tm2-gGv3kF3-172">
          <mxGeometry width="50" height="50" relative="1" as="geometry">
            <mxPoint x="70" y="120" as="sourcePoint" />
            <mxPoint x="70" as="targetPoint" />
          </mxGeometry>
        </mxCell>
        <mxCell id="ysh0__bV-tm2-gGv3kF3-177" value="" style="endArrow=none;html=1;rounded=0;fillColor=#eeeeee;strokeColor=#36393d;" edge="1" parent="ysh0__bV-tm2-gGv3kF3-172">
          <mxGeometry width="50" height="50" relative="1" as="geometry">
            <mxPoint x="70" y="120" as="sourcePoint" />
            <mxPoint x="19.09090909090909" y="160" as="targetPoint" />
          </mxGeometry>
        </mxCell>
        <mxCell id="ysh0__bV-tm2-gGv3kF3-178" value="" style="group;fillColor=#eeeeee;strokeColor=#36393d;" vertex="1" connectable="0" parent="ysh0__bV-tm2-gGv3kF3-172">
          <mxGeometry y="40" width="19.09090909090909" height="120" as="geometry" />
        </mxCell>
        <mxCell id="ysh0__bV-tm2-gGv3kF3-179" value="" style="endArrow=none;html=1;rounded=0;fillColor=#eeeeee;strokeColor=#36393d;" edge="1" parent="ysh0__bV-tm2-gGv3kF3-178">
          <mxGeometry width="50" height="50" relative="1" as="geometry">
            <mxPoint y="120" as="sourcePoint" />
            <mxPoint as="targetPoint" />
          </mxGeometry>
        </mxCell>
        <mxCell id="ysh0__bV-tm2-gGv3kF3-180" value="" style="endArrow=none;html=1;rounded=0;fillColor=#eeeeee;strokeColor=#36393d;" edge="1" parent="ysh0__bV-tm2-gGv3kF3-178">
          <mxGeometry width="50" height="50" relative="1" as="geometry">
            <mxPoint x="19.09090909090909" y="120" as="sourcePoint" />
            <mxPoint x="19.09090909090909" as="targetPoint" />
          </mxGeometry>
        </mxCell>
        <mxCell id="ysh0__bV-tm2-gGv3kF3-181" value="" style="endArrow=none;html=1;rounded=0;fillColor=#eeeeee;strokeColor=#36393d;" edge="1" parent="ysh0__bV-tm2-gGv3kF3-178">
          <mxGeometry width="50" height="50" relative="1" as="geometry">
            <mxPoint x="19.09090909090909" y="120" as="sourcePoint" />
            <mxPoint y="120" as="targetPoint" />
          </mxGeometry>
        </mxCell>
        <mxCell id="ysh0__bV-tm2-gGv3kF3-182" value="" style="endArrow=none;html=1;rounded=0;fillColor=#eeeeee;strokeColor=#36393d;" edge="1" parent="ysh0__bV-tm2-gGv3kF3-178">
          <mxGeometry width="50" height="50" relative="1" as="geometry">
            <mxPoint as="sourcePoint" />
            <mxPoint x="19.09090909090909" as="targetPoint" />
          </mxGeometry>
        </mxCell>
        <mxCell id="ysh0__bV-tm2-gGv3kF3-183" value="" style="endArrow=none;html=1;rounded=0;" edge="1" parent="ysh0__bV-tm2-gGv3kF3-172">
          <mxGeometry width="50" height="50" relative="1" as="geometry">
            <mxPoint x="19.09090909090909" y="160" as="sourcePoint" />
            <mxPoint x="19.09090909090909" y="40" as="targetPoint" />
          </mxGeometry>
        </mxCell>
        <mxCell id="ysh0__bV-tm2-gGv3kF3-184" value="" style="group" vertex="1" connectable="0" parent="1">
          <mxGeometry x="549" y="240" width="60" height="120" as="geometry" />
        </mxCell>
        <mxCell id="ysh0__bV-tm2-gGv3kF3-185" value="" style="endArrow=none;html=1;rounded=0;" edge="1" parent="ysh0__bV-tm2-gGv3kF3-184">
          <mxGeometry width="50" height="50" relative="1" as="geometry">
            <mxPoint y="30.000000000000007" as="sourcePoint" />
            <mxPoint x="43.63636363636363" as="targetPoint" />
          </mxGeometry>
        </mxCell>
        <mxCell id="ysh0__bV-tm2-gGv3kF3-186" value="" style="endArrow=none;html=1;rounded=0;" edge="1" parent="ysh0__bV-tm2-gGv3kF3-184">
          <mxGeometry width="50" height="50" relative="1" as="geometry">
            <mxPoint x="60" as="sourcePoint" />
            <mxPoint x="43.63636363636363" as="targetPoint" />
          </mxGeometry>
        </mxCell>
        <mxCell id="ysh0__bV-tm2-gGv3kF3-187" value="" style="endArrow=none;html=1;rounded=0;fillColor=#eeeeee;strokeColor=#36393d;" edge="1" parent="ysh0__bV-tm2-gGv3kF3-184">
          <mxGeometry width="50" height="50" relative="1" as="geometry">
            <mxPoint x="16.36363636363636" y="30.000000000000007" as="sourcePoint" />
            <mxPoint x="60" as="targetPoint" />
          </mxGeometry>
        </mxCell>
        <mxCell id="ysh0__bV-tm2-gGv3kF3-188" value="" style="endArrow=none;html=1;rounded=0;fillColor=#eeeeee;strokeColor=#36393d;" edge="1" parent="ysh0__bV-tm2-gGv3kF3-184">
          <mxGeometry width="50" height="50" relative="1" as="geometry">
            <mxPoint x="60" y="90.00000000000001" as="sourcePoint" />
            <mxPoint x="60" as="targetPoint" />
          </mxGeometry>
        </mxCell>
        <mxCell id="ysh0__bV-tm2-gGv3kF3-189" value="" style="endArrow=none;html=1;rounded=0;fillColor=#eeeeee;strokeColor=#36393d;" edge="1" parent="ysh0__bV-tm2-gGv3kF3-184">
          <mxGeometry width="50" height="50" relative="1" as="geometry">
            <mxPoint x="60" y="90.00000000000001" as="sourcePoint" />
            <mxPoint x="16.36363636363636" y="120.00000000000003" as="targetPoint" />
          </mxGeometry>
        </mxCell>
        <mxCell id="ysh0__bV-tm2-gGv3kF3-190" value="" style="group;fillColor=#eeeeee;strokeColor=#36393d;" vertex="1" connectable="0" parent="ysh0__bV-tm2-gGv3kF3-184">
          <mxGeometry y="30.000000000000007" width="16.36363636363636" height="90.00000000000001" as="geometry" />
        </mxCell>
        <mxCell id="ysh0__bV-tm2-gGv3kF3-191" value="" style="endArrow=none;html=1;rounded=0;fillColor=#eeeeee;strokeColor=#36393d;" edge="1" parent="ysh0__bV-tm2-gGv3kF3-190">
          <mxGeometry width="50" height="50" relative="1" as="geometry">
            <mxPoint y="90.00000000000001" as="sourcePoint" />
            <mxPoint as="targetPoint" />
          </mxGeometry>
        </mxCell>
        <mxCell id="ysh0__bV-tm2-gGv3kF3-192" value="" style="endArrow=none;html=1;rounded=0;fillColor=#eeeeee;strokeColor=#36393d;" edge="1" parent="ysh0__bV-tm2-gGv3kF3-190">
          <mxGeometry width="50" height="50" relative="1" as="geometry">
            <mxPoint x="16.36363636363636" y="90.00000000000001" as="sourcePoint" />
            <mxPoint x="16.36363636363636" as="targetPoint" />
          </mxGeometry>
        </mxCell>
        <mxCell id="ysh0__bV-tm2-gGv3kF3-193" value="" style="endArrow=none;html=1;rounded=0;fillColor=#eeeeee;strokeColor=#36393d;" edge="1" parent="ysh0__bV-tm2-gGv3kF3-190">
          <mxGeometry width="50" height="50" relative="1" as="geometry">
            <mxPoint x="16.36363636363636" y="90.00000000000001" as="sourcePoint" />
            <mxPoint y="90.00000000000001" as="targetPoint" />
          </mxGeometry>
        </mxCell>
        <mxCell id="ysh0__bV-tm2-gGv3kF3-194" value="" style="endArrow=none;html=1;rounded=0;fillColor=#eeeeee;strokeColor=#36393d;" edge="1" parent="ysh0__bV-tm2-gGv3kF3-190">
          <mxGeometry width="50" height="50" relative="1" as="geometry">
            <mxPoint as="sourcePoint" />
            <mxPoint x="16.36363636363636" as="targetPoint" />
          </mxGeometry>
        </mxCell>
        <mxCell id="ysh0__bV-tm2-gGv3kF3-195" value="" style="endArrow=none;html=1;rounded=0;" edge="1" parent="ysh0__bV-tm2-gGv3kF3-184">
          <mxGeometry width="50" height="50" relative="1" as="geometry">
            <mxPoint x="16.36363636363636" y="120.00000000000003" as="sourcePoint" />
            <mxPoint x="16.36363636363636" y="30.000000000000007" as="targetPoint" />
          </mxGeometry>
        </mxCell>
        <mxCell id="ysh0__bV-tm2-gGv3kF3-196" value="" style="group" vertex="1" connectable="0" parent="1">
          <mxGeometry x="649" y="280" width="40" height="80" as="geometry" />
        </mxCell>
        <mxCell id="ysh0__bV-tm2-gGv3kF3-197" value="" style="endArrow=none;html=1;rounded=0;" edge="1" parent="ysh0__bV-tm2-gGv3kF3-196">
          <mxGeometry width="50" height="50" relative="1" as="geometry">
            <mxPoint y="20" as="sourcePoint" />
            <mxPoint x="29.09090909090909" as="targetPoint" />
          </mxGeometry>
        </mxCell>
        <mxCell id="ysh0__bV-tm2-gGv3kF3-199" value="" style="endArrow=none;html=1;rounded=0;fillColor=#eeeeee;strokeColor=#36393d;" edge="1" parent="ysh0__bV-tm2-gGv3kF3-196">
          <mxGeometry width="50" height="50" relative="1" as="geometry">
            <mxPoint x="10.90909090909091" y="20" as="sourcePoint" />
            <mxPoint x="40" as="targetPoint" />
          </mxGeometry>
        </mxCell>
        <mxCell id="ysh0__bV-tm2-gGv3kF3-200" value="" style="endArrow=none;html=1;rounded=0;fillColor=#eeeeee;strokeColor=#36393d;" edge="1" parent="ysh0__bV-tm2-gGv3kF3-196">
          <mxGeometry width="50" height="50" relative="1" as="geometry">
            <mxPoint x="40" y="60" as="sourcePoint" />
            <mxPoint x="40" as="targetPoint" />
          </mxGeometry>
        </mxCell>
        <mxCell id="ysh0__bV-tm2-gGv3kF3-201" value="" style="endArrow=none;html=1;rounded=0;fillColor=#eeeeee;strokeColor=#36393d;" edge="1" parent="ysh0__bV-tm2-gGv3kF3-196">
          <mxGeometry width="50" height="50" relative="1" as="geometry">
            <mxPoint x="40" y="60" as="sourcePoint" />
            <mxPoint x="10.90909090909091" y="80" as="targetPoint" />
          </mxGeometry>
        </mxCell>
        <mxCell id="ysh0__bV-tm2-gGv3kF3-202" value="" style="group;fillColor=#eeeeee;strokeColor=#36393d;" vertex="1" connectable="0" parent="ysh0__bV-tm2-gGv3kF3-196">
          <mxGeometry y="20" width="10.90909090909091" height="60" as="geometry" />
        </mxCell>
        <mxCell id="ysh0__bV-tm2-gGv3kF3-203" value="" style="endArrow=none;html=1;rounded=0;fillColor=#eeeeee;strokeColor=#36393d;" edge="1" parent="ysh0__bV-tm2-gGv3kF3-202">
          <mxGeometry width="50" height="50" relative="1" as="geometry">
            <mxPoint y="60" as="sourcePoint" />
            <mxPoint as="targetPoint" />
          </mxGeometry>
        </mxCell>
        <mxCell id="ysh0__bV-tm2-gGv3kF3-204" value="" style="endArrow=none;html=1;rounded=0;fillColor=#eeeeee;strokeColor=#36393d;" edge="1" parent="ysh0__bV-tm2-gGv3kF3-202">
          <mxGeometry width="50" height="50" relative="1" as="geometry">
            <mxPoint x="10.90909090909091" y="60" as="sourcePoint" />
            <mxPoint x="10.90909090909091" as="targetPoint" />
          </mxGeometry>
        </mxCell>
        <mxCell id="ysh0__bV-tm2-gGv3kF3-205" value="" style="endArrow=none;html=1;rounded=0;fillColor=#eeeeee;strokeColor=#36393d;" edge="1" parent="ysh0__bV-tm2-gGv3kF3-202">
          <mxGeometry width="50" height="50" relative="1" as="geometry">
            <mxPoint x="10.90909090909091" y="60" as="sourcePoint" />
            <mxPoint y="60" as="targetPoint" />
          </mxGeometry>
        </mxCell>
        <mxCell id="ysh0__bV-tm2-gGv3kF3-206" value="" style="endArrow=none;html=1;rounded=0;fillColor=#eeeeee;strokeColor=#36393d;" edge="1" parent="ysh0__bV-tm2-gGv3kF3-202">
          <mxGeometry width="50" height="50" relative="1" as="geometry">
            <mxPoint as="sourcePoint" />
            <mxPoint x="10.90909090909091" as="targetPoint" />
          </mxGeometry>
        </mxCell>
        <mxCell id="ysh0__bV-tm2-gGv3kF3-207" value="" style="endArrow=none;html=1;rounded=0;" edge="1" parent="ysh0__bV-tm2-gGv3kF3-196">
          <mxGeometry width="50" height="50" relative="1" as="geometry">
            <mxPoint x="10.90909090909091" y="80" as="sourcePoint" />
            <mxPoint x="10.90909090909091" y="20" as="targetPoint" />
          </mxGeometry>
        </mxCell>
        <mxCell id="ysh0__bV-tm2-gGv3kF3-334" value="" style="endArrow=none;html=1;rounded=0;fillColor=#eeeeee;strokeColor=#36393d;" edge="1" parent="ysh0__bV-tm2-gGv3kF3-196">
          <mxGeometry width="50" height="50" relative="1" as="geometry">
            <mxPoint x="39.99909090909091" as="sourcePoint" />
            <mxPoint x="29.090000000000032" as="targetPoint" />
          </mxGeometry>
        </mxCell>
        <mxCell id="ysh0__bV-tm2-gGv3kF3-208" value="Downsample 2&lt;div&gt;64 x 64 x 128&lt;/div&gt;" style="text;html=1;align=center;verticalAlign=middle;resizable=0;points=[];autosize=1;strokeColor=none;fillColor=none;rotation=0;horizontal=1;" vertex="1" parent="1">
          <mxGeometry x="529" y="200" width="100" height="40" as="geometry" />
        </mxCell>
        <mxCell id="ysh0__bV-tm2-gGv3kF3-209" value="Downsample 3&lt;div&gt;32 x 32 x 256&lt;/div&gt;" style="text;html=1;align=center;verticalAlign=middle;resizable=0;points=[];autosize=1;strokeColor=none;fillColor=none;horizontal=1;" vertex="1" parent="1">
          <mxGeometry x="619" y="241" width="100" height="40" as="geometry" />
        </mxCell>
        <mxCell id="ysh0__bV-tm2-gGv3kF3-210" value="Down&lt;span style=&quot;background-color: transparent; color: light-dark(rgb(0, 0, 0), rgb(255, 255, 255));&quot;&gt;sample 1&lt;/span&gt;&lt;div&gt;&lt;span style=&quot;background-color: transparent; color: light-dark(rgb(0, 0, 0), rgb(255, 255, 255));&quot;&gt;128 x 128 x 64&lt;/span&gt;&lt;/div&gt;" style="text;html=1;align=center;verticalAlign=middle;resizable=0;points=[];autosize=1;strokeColor=none;fillColor=none;rotation=0;horizontal=1;" vertex="1" parent="1">
          <mxGeometry x="424" y="160" width="100" height="40" as="geometry" />
        </mxCell>
        <mxCell id="ysh0__bV-tm2-gGv3kF3-211" value="" style="edgeStyle=orthogonalEdgeStyle;rounded=0;orthogonalLoop=1;jettySize=auto;html=1;" edge="1" parent="1">
          <mxGeometry relative="1" as="geometry">
            <mxPoint x="338" y="320" as="sourcePoint" />
            <mxPoint x="393" y="320" as="targetPoint" />
          </mxGeometry>
        </mxCell>
        <mxCell id="ysh0__bV-tm2-gGv3kF3-212" value="Input&amp;nbsp;&lt;div&gt;Image&lt;/div&gt;&lt;div&gt;256 x 256 x 1&lt;/div&gt;" style="text;html=1;align=center;verticalAlign=middle;resizable=0;points=[];autosize=1;strokeColor=none;fillColor=none;" vertex="1" parent="1">
          <mxGeometry x="240" y="290" width="100" height="60" as="geometry" />
        </mxCell>
        <mxCell id="ysh0__bV-tm2-gGv3kF3-243" value="" style="group;rounded=1;strokeWidth=0;" vertex="1" connectable="0" parent="1">
          <mxGeometry x="410" y="-20" width="60" height="70" as="geometry" />
        </mxCell>
        <mxCell id="ysh0__bV-tm2-gGv3kF3-242" value="" style="group;fontSize=5;rounded=1;container=0;" vertex="1" connectable="0" parent="ysh0__bV-tm2-gGv3kF3-243">
          <mxGeometry width="40" height="70" as="geometry" />
        </mxCell>
        <mxCell id="ysh0__bV-tm2-gGv3kF3-214" value="CONV2D&lt;br&gt;Kernel 4x4x64" style="text;html=1;align=left;verticalAlign=middle;resizable=0;points=[];autosize=1;fontSize=5;" vertex="1" parent="ysh0__bV-tm2-gGv3kF3-243">
          <mxGeometry width="60" height="30" as="geometry" />
        </mxCell>
        <mxCell id="ysh0__bV-tm2-gGv3kF3-215" value="&lt;font style=&quot;font-size: 5px;&quot;&gt;Instance&amp;nbsp;&lt;/font&gt;&lt;div&gt;&lt;font style=&quot;font-size: 5px;&quot;&gt;Normalization&lt;/font&gt;&lt;/div&gt;" style="text;html=1;align=left;verticalAlign=middle;resizable=0;points=[];autosize=1;strokeColor=none;fillColor=none;fontSize=7;" vertex="1" parent="ysh0__bV-tm2-gGv3kF3-243">
          <mxGeometry y="21.875" width="50" height="30" as="geometry" />
        </mxCell>
        <mxCell id="ysh0__bV-tm2-gGv3kF3-213" value="&lt;div&gt;&lt;span style=&quot;background-color: transparent; color: light-dark(rgb(0, 0, 0), rgb(255, 255, 255));&quot;&gt;&lt;font style=&quot;font-size: 5px;&quot;&gt;LeakyRelu&lt;/font&gt;&lt;/span&gt;&lt;/div&gt;" style="text;html=1;align=left;verticalAlign=middle;resizable=0;points=[];autosize=1;strokeColor=none;fillColor=none;fontSize=7;" vertex="1" parent="ysh0__bV-tm2-gGv3kF3-243">
          <mxGeometry y="44.75" width="50" height="20" as="geometry" />
        </mxCell>
        <mxCell id="ysh0__bV-tm2-gGv3kF3-241" value="" style="group" vertex="1" connectable="0" parent="ysh0__bV-tm2-gGv3kF3-243">
          <mxGeometry x="5.734693877551042" y="19.625" height="32.375" as="geometry" />
        </mxCell>
        <mxCell id="ysh0__bV-tm2-gGv3kF3-224" value="" style="endArrow=classic;html=1;rounded=0;strokeWidth=0;" edge="1" parent="ysh0__bV-tm2-gGv3kF3-241">
          <mxGeometry width="50" height="50" relative="1" as="geometry">
            <mxPoint as="sourcePoint" />
            <mxPoint y="8.75" as="targetPoint" />
          </mxGeometry>
        </mxCell>
        <mxCell id="ysh0__bV-tm2-gGv3kF3-225" value="" style="endArrow=classic;html=1;rounded=0;strokeWidth=0;" edge="1" parent="ysh0__bV-tm2-gGv3kF3-241">
          <mxGeometry width="50" height="50" relative="1" as="geometry">
            <mxPoint y="23.625" as="sourcePoint" />
            <mxPoint y="32.375" as="targetPoint" />
          </mxGeometry>
        </mxCell>
        <mxCell id="ysh0__bV-tm2-gGv3kF3-244" value="" style="group;rounded=1;strokeWidth=0;" vertex="1" connectable="0" parent="1">
          <mxGeometry x="520" y="-20" width="60" height="70" as="geometry" />
        </mxCell>
        <mxCell id="ysh0__bV-tm2-gGv3kF3-245" value="" style="group;fontSize=5;rounded=1;container=0;" vertex="1" connectable="0" parent="ysh0__bV-tm2-gGv3kF3-244">
          <mxGeometry width="33.333333333333336" height="70" as="geometry" />
        </mxCell>
        <mxCell id="ysh0__bV-tm2-gGv3kF3-246" value="CONV2D&lt;br&gt;Kernel 4x4x128" style="text;html=1;align=left;verticalAlign=middle;resizable=0;points=[];autosize=1;fontSize=5;" vertex="1" parent="ysh0__bV-tm2-gGv3kF3-244">
          <mxGeometry width="60" height="30" as="geometry" />
        </mxCell>
        <mxCell id="ysh0__bV-tm2-gGv3kF3-247" value="&lt;font style=&quot;font-size: 5px;&quot;&gt;Instance&amp;nbsp;&lt;/font&gt;&lt;div&gt;&lt;font style=&quot;font-size: 5px;&quot;&gt;Normalization&lt;/font&gt;&lt;/div&gt;" style="text;html=1;align=left;verticalAlign=middle;resizable=0;points=[];autosize=1;strokeColor=none;fillColor=none;fontSize=7;" vertex="1" parent="ysh0__bV-tm2-gGv3kF3-244">
          <mxGeometry y="21.875" width="50" height="30" as="geometry" />
        </mxCell>
        <mxCell id="ysh0__bV-tm2-gGv3kF3-248" value="&lt;div&gt;&lt;span style=&quot;background-color: transparent; color: light-dark(rgb(0, 0, 0), rgb(255, 255, 255));&quot;&gt;&lt;font style=&quot;font-size: 5px;&quot;&gt;LeakyRelu&lt;/font&gt;&lt;/span&gt;&lt;/div&gt;" style="text;html=1;align=left;verticalAlign=middle;resizable=0;points=[];autosize=1;strokeColor=none;fillColor=none;fontSize=7;" vertex="1" parent="ysh0__bV-tm2-gGv3kF3-244">
          <mxGeometry y="44.75" width="50" height="20" as="geometry" />
        </mxCell>
        <mxCell id="ysh0__bV-tm2-gGv3kF3-249" value="" style="group" vertex="1" connectable="0" parent="ysh0__bV-tm2-gGv3kF3-244">
          <mxGeometry x="4.778911564625869" y="19.625" height="32.375" as="geometry" />
        </mxCell>
        <mxCell id="ysh0__bV-tm2-gGv3kF3-250" value="" style="endArrow=classic;html=1;rounded=0;strokeWidth=0;" edge="1" parent="ysh0__bV-tm2-gGv3kF3-249">
          <mxGeometry width="50" height="50" relative="1" as="geometry">
            <mxPoint as="sourcePoint" />
            <mxPoint y="8.75" as="targetPoint" />
          </mxGeometry>
        </mxCell>
        <mxCell id="ysh0__bV-tm2-gGv3kF3-251" value="" style="endArrow=classic;html=1;rounded=0;strokeWidth=0;" edge="1" parent="ysh0__bV-tm2-gGv3kF3-249">
          <mxGeometry width="50" height="50" relative="1" as="geometry">
            <mxPoint y="23.625" as="sourcePoint" />
            <mxPoint y="32.375" as="targetPoint" />
          </mxGeometry>
        </mxCell>
        <mxCell id="ysh0__bV-tm2-gGv3kF3-252" value="" style="group;rounded=1;strokeWidth=0;" vertex="1" connectable="0" parent="1">
          <mxGeometry x="620" y="-20" width="60" height="70" as="geometry" />
        </mxCell>
        <mxCell id="ysh0__bV-tm2-gGv3kF3-253" value="" style="group;fontSize=5;rounded=1;container=0;" vertex="1" connectable="0" parent="ysh0__bV-tm2-gGv3kF3-252">
          <mxGeometry width="27.77777777777778" height="70" as="geometry" />
        </mxCell>
        <mxCell id="ysh0__bV-tm2-gGv3kF3-254" value="CONV2D&lt;br&gt;Kernel 4x4x256" style="text;html=1;align=left;verticalAlign=middle;resizable=0;points=[];autosize=1;fontSize=5;" vertex="1" parent="ysh0__bV-tm2-gGv3kF3-252">
          <mxGeometry width="60" height="30" as="geometry" />
        </mxCell>
        <mxCell id="ysh0__bV-tm2-gGv3kF3-255" value="&lt;font style=&quot;font-size: 5px;&quot;&gt;Instance&amp;nbsp;&lt;/font&gt;&lt;div&gt;&lt;font style=&quot;font-size: 5px;&quot;&gt;Normalization&lt;/font&gt;&lt;/div&gt;" style="text;html=1;align=left;verticalAlign=middle;resizable=0;points=[];autosize=1;strokeColor=none;fillColor=none;fontSize=7;" vertex="1" parent="ysh0__bV-tm2-gGv3kF3-252">
          <mxGeometry y="21.875" width="50" height="30" as="geometry" />
        </mxCell>
        <mxCell id="ysh0__bV-tm2-gGv3kF3-256" value="&lt;div&gt;&lt;span style=&quot;background-color: transparent; color: light-dark(rgb(0, 0, 0), rgb(255, 255, 255));&quot;&gt;&lt;font style=&quot;font-size: 5px;&quot;&gt;LeakyRelu&lt;/font&gt;&lt;/span&gt;&lt;/div&gt;" style="text;html=1;align=left;verticalAlign=middle;resizable=0;points=[];autosize=1;strokeColor=none;fillColor=none;fontSize=7;" vertex="1" parent="ysh0__bV-tm2-gGv3kF3-252">
          <mxGeometry y="44.75" width="50" height="20" as="geometry" />
        </mxCell>
        <mxCell id="ysh0__bV-tm2-gGv3kF3-257" value="" style="group" vertex="1" connectable="0" parent="ysh0__bV-tm2-gGv3kF3-252">
          <mxGeometry x="3.98242630385489" y="19.625" height="32.375" as="geometry" />
        </mxCell>
        <mxCell id="ysh0__bV-tm2-gGv3kF3-258" value="" style="endArrow=classic;html=1;rounded=0;strokeWidth=0;" edge="1" parent="ysh0__bV-tm2-gGv3kF3-257">
          <mxGeometry width="50" height="50" relative="1" as="geometry">
            <mxPoint as="sourcePoint" />
            <mxPoint y="8.75" as="targetPoint" />
          </mxGeometry>
        </mxCell>
        <mxCell id="ysh0__bV-tm2-gGv3kF3-259" value="" style="endArrow=classic;html=1;rounded=0;strokeWidth=0;" edge="1" parent="ysh0__bV-tm2-gGv3kF3-257">
          <mxGeometry width="50" height="50" relative="1" as="geometry">
            <mxPoint y="23.625" as="sourcePoint" />
            <mxPoint y="32.375" as="targetPoint" />
          </mxGeometry>
        </mxCell>
        <mxCell id="ysh0__bV-tm2-gGv3kF3-304" value="" style="group" vertex="1" connectable="0" parent="1">
          <mxGeometry x="990" y="-30" width="40" height="72.5" as="geometry" />
        </mxCell>
        <mxCell id="ysh0__bV-tm2-gGv3kF3-294" value="" style="endArrow=classic;html=1;rounded=0;strokeWidth=0;" edge="1" parent="ysh0__bV-tm2-gGv3kF3-304">
          <mxGeometry width="50" height="50" relative="1" as="geometry">
            <mxPoint x="7.334950869236612" y="50.96875" as="sourcePoint" />
            <mxPoint x="7.334950869236612" y="58.625" as="targetPoint" />
          </mxGeometry>
        </mxCell>
        <mxCell id="ysh0__bV-tm2-gGv3kF3-295" value="" style="group;fontSize=5;rounded=1;container=0;" vertex="1" connectable="0" parent="ysh0__bV-tm2-gGv3kF3-304">
          <mxGeometry x="4.666666666666666" width="18.51851851851852" height="61.25" as="geometry" />
        </mxCell>
        <mxCell id="ysh0__bV-tm2-gGv3kF3-296" value="" style="group" vertex="1" connectable="0" parent="ysh0__bV-tm2-gGv3kF3-304">
          <mxGeometry x="7.3216175359032905" y="17.171875" height="28.328125" as="geometry" />
        </mxCell>
        <mxCell id="ysh0__bV-tm2-gGv3kF3-297" value="" style="endArrow=classic;html=1;rounded=0;strokeWidth=0;" edge="1" parent="ysh0__bV-tm2-gGv3kF3-296">
          <mxGeometry width="50" height="50" relative="1" as="geometry">
            <mxPoint as="sourcePoint" />
            <mxPoint y="7.65625" as="targetPoint" />
          </mxGeometry>
        </mxCell>
        <mxCell id="ysh0__bV-tm2-gGv3kF3-298" value="" style="endArrow=classic;html=1;rounded=0;strokeWidth=0;" edge="1" parent="ysh0__bV-tm2-gGv3kF3-296">
          <mxGeometry width="50" height="50" relative="1" as="geometry">
            <mxPoint y="20.671875" as="sourcePoint" />
            <mxPoint y="28.328125" as="targetPoint" />
          </mxGeometry>
        </mxCell>
        <mxCell id="ysh0__bV-tm2-gGv3kF3-299" value="" style="group" vertex="1" connectable="0" parent="ysh0__bV-tm2-gGv3kF3-304">
          <mxGeometry width="40" height="72.5" as="geometry" />
        </mxCell>
        <mxCell id="ysh0__bV-tm2-gGv3kF3-300" value="CONV2DT&lt;br&gt;Kernel 4x4x64" style="text;html=1;align=left;verticalAlign=middle;resizable=0;points=[];autosize=1;fontSize=5;" vertex="1" parent="ysh0__bV-tm2-gGv3kF3-299">
          <mxGeometry width="60" height="30" as="geometry" />
        </mxCell>
        <mxCell id="ysh0__bV-tm2-gGv3kF3-301" value="&lt;font style=&quot;font-size: 5px;&quot;&gt;Instance&amp;nbsp;&lt;/font&gt;&lt;div&gt;&lt;font style=&quot;font-size: 5px;&quot;&gt;Normalization&lt;/font&gt;&lt;/div&gt;" style="text;html=1;align=left;verticalAlign=middle;resizable=0;points=[];autosize=1;strokeColor=none;fillColor=none;fontSize=7;" vertex="1" parent="ysh0__bV-tm2-gGv3kF3-299">
          <mxGeometry y="18.265625" width="50" height="30" as="geometry" />
        </mxCell>
        <mxCell id="ysh0__bV-tm2-gGv3kF3-302" value="&lt;div&gt;&lt;span style=&quot;background-color: transparent; color: light-dark(rgb(0, 0, 0), rgb(255, 255, 255));&quot;&gt;&lt;font style=&quot;font-size: 5px;&quot;&gt;Dropout&lt;/font&gt;&lt;/span&gt;&lt;/div&gt;" style="text;html=1;align=left;verticalAlign=middle;resizable=0;points=[];autosize=1;strokeColor=none;fillColor=none;fontSize=7;" vertex="1" parent="ysh0__bV-tm2-gGv3kF3-299">
          <mxGeometry y="39.15625" width="40" height="20" as="geometry" />
        </mxCell>
        <mxCell id="ysh0__bV-tm2-gGv3kF3-303" value="&lt;div&gt;&lt;span style=&quot;background-color: transparent; color: light-dark(rgb(0, 0, 0), rgb(255, 255, 255));&quot;&gt;&lt;font style=&quot;font-size: 5px;&quot;&gt;Relu&lt;/font&gt;&lt;/span&gt;&lt;/div&gt;" style="text;html=1;align=left;verticalAlign=middle;resizable=0;points=[];autosize=1;strokeColor=none;fillColor=none;fontSize=7;" vertex="1" parent="ysh0__bV-tm2-gGv3kF3-299">
          <mxGeometry y="52.5" width="30" height="20" as="geometry" />
        </mxCell>
        <mxCell id="ysh0__bV-tm2-gGv3kF3-306" value="" style="group" vertex="1" connectable="0" parent="1">
          <mxGeometry x="800" y="-30" width="40" height="72.5" as="geometry" />
        </mxCell>
        <mxCell id="ysh0__bV-tm2-gGv3kF3-307" value="" style="endArrow=classic;html=1;rounded=0;strokeWidth=0;" edge="1" parent="ysh0__bV-tm2-gGv3kF3-306">
          <mxGeometry width="50" height="50" relative="1" as="geometry">
            <mxPoint x="7.334950869236612" y="50.96875" as="sourcePoint" />
            <mxPoint x="7.334950869236612" y="58.625" as="targetPoint" />
          </mxGeometry>
        </mxCell>
        <mxCell id="ysh0__bV-tm2-gGv3kF3-308" value="" style="group;fontSize=5;rounded=1;container=0;" vertex="1" connectable="0" parent="ysh0__bV-tm2-gGv3kF3-306">
          <mxGeometry x="4.666666666666666" width="18.51851851851852" height="61.25" as="geometry" />
        </mxCell>
        <mxCell id="ysh0__bV-tm2-gGv3kF3-309" value="" style="group" vertex="1" connectable="0" parent="ysh0__bV-tm2-gGv3kF3-306">
          <mxGeometry x="7.3216175359032905" y="17.171875" height="28.328125" as="geometry" />
        </mxCell>
        <mxCell id="ysh0__bV-tm2-gGv3kF3-310" value="" style="endArrow=classic;html=1;rounded=0;strokeWidth=0;" edge="1" parent="ysh0__bV-tm2-gGv3kF3-309">
          <mxGeometry width="50" height="50" relative="1" as="geometry">
            <mxPoint as="sourcePoint" />
            <mxPoint y="7.65625" as="targetPoint" />
          </mxGeometry>
        </mxCell>
        <mxCell id="ysh0__bV-tm2-gGv3kF3-311" value="" style="endArrow=classic;html=1;rounded=0;strokeWidth=0;" edge="1" parent="ysh0__bV-tm2-gGv3kF3-309">
          <mxGeometry width="50" height="50" relative="1" as="geometry">
            <mxPoint y="20.671875" as="sourcePoint" />
            <mxPoint y="28.328125" as="targetPoint" />
          </mxGeometry>
        </mxCell>
        <mxCell id="ysh0__bV-tm2-gGv3kF3-312" value="" style="group" vertex="1" connectable="0" parent="ysh0__bV-tm2-gGv3kF3-306">
          <mxGeometry width="40" height="72.5" as="geometry" />
        </mxCell>
        <mxCell id="ysh0__bV-tm2-gGv3kF3-313" value="CONV2DT&lt;br&gt;Kernel 4x4x256" style="text;html=1;align=left;verticalAlign=middle;resizable=0;points=[];autosize=1;fontSize=5;" vertex="1" parent="ysh0__bV-tm2-gGv3kF3-312">
          <mxGeometry width="60" height="30" as="geometry" />
        </mxCell>
        <mxCell id="ysh0__bV-tm2-gGv3kF3-314" value="&lt;font style=&quot;font-size: 5px;&quot;&gt;Instance&amp;nbsp;&lt;/font&gt;&lt;div&gt;&lt;font style=&quot;font-size: 5px;&quot;&gt;Normalization&lt;/font&gt;&lt;/div&gt;" style="text;html=1;align=left;verticalAlign=middle;resizable=0;points=[];autosize=1;strokeColor=none;fillColor=none;fontSize=7;" vertex="1" parent="ysh0__bV-tm2-gGv3kF3-312">
          <mxGeometry y="18.265625" width="50" height="30" as="geometry" />
        </mxCell>
        <mxCell id="ysh0__bV-tm2-gGv3kF3-315" value="&lt;div&gt;&lt;span style=&quot;background-color: transparent; color: light-dark(rgb(0, 0, 0), rgb(255, 255, 255));&quot;&gt;&lt;font style=&quot;font-size: 5px;&quot;&gt;Dropout&lt;/font&gt;&lt;/span&gt;&lt;/div&gt;" style="text;html=1;align=left;verticalAlign=middle;resizable=0;points=[];autosize=1;strokeColor=none;fillColor=none;fontSize=7;" vertex="1" parent="ysh0__bV-tm2-gGv3kF3-312">
          <mxGeometry y="39.15625" width="40" height="20" as="geometry" />
        </mxCell>
        <mxCell id="ysh0__bV-tm2-gGv3kF3-316" value="&lt;div&gt;&lt;span style=&quot;background-color: transparent; color: light-dark(rgb(0, 0, 0), rgb(255, 255, 255));&quot;&gt;&lt;font style=&quot;font-size: 5px;&quot;&gt;Relu&lt;/font&gt;&lt;/span&gt;&lt;/div&gt;" style="text;html=1;align=left;verticalAlign=middle;resizable=0;points=[];autosize=1;strokeColor=none;fillColor=none;fontSize=7;" vertex="1" parent="ysh0__bV-tm2-gGv3kF3-312">
          <mxGeometry y="52.5" width="30" height="20" as="geometry" />
        </mxCell>
        <mxCell id="ysh0__bV-tm2-gGv3kF3-317" value="" style="group" vertex="1" connectable="0" parent="1">
          <mxGeometry x="890" y="-30" width="40" height="72.5" as="geometry" />
        </mxCell>
        <mxCell id="ysh0__bV-tm2-gGv3kF3-318" value="" style="endArrow=classic;html=1;rounded=0;strokeWidth=0;" edge="1" parent="ysh0__bV-tm2-gGv3kF3-317">
          <mxGeometry width="50" height="50" relative="1" as="geometry">
            <mxPoint x="7.334950869236612" y="50.96875" as="sourcePoint" />
            <mxPoint x="7.334950869236612" y="58.625" as="targetPoint" />
          </mxGeometry>
        </mxCell>
        <mxCell id="ysh0__bV-tm2-gGv3kF3-319" value="" style="group;fontSize=5;rounded=1;container=0;" vertex="1" connectable="0" parent="ysh0__bV-tm2-gGv3kF3-317">
          <mxGeometry x="4.666666666666666" width="18.51851851851852" height="61.25" as="geometry" />
        </mxCell>
        <mxCell id="ysh0__bV-tm2-gGv3kF3-320" value="" style="group" vertex="1" connectable="0" parent="ysh0__bV-tm2-gGv3kF3-317">
          <mxGeometry x="7.3216175359032905" y="17.171875" height="28.328125" as="geometry" />
        </mxCell>
        <mxCell id="ysh0__bV-tm2-gGv3kF3-321" value="" style="endArrow=classic;html=1;rounded=0;strokeWidth=0;" edge="1" parent="ysh0__bV-tm2-gGv3kF3-320">
          <mxGeometry width="50" height="50" relative="1" as="geometry">
            <mxPoint as="sourcePoint" />
            <mxPoint y="7.65625" as="targetPoint" />
          </mxGeometry>
        </mxCell>
        <mxCell id="ysh0__bV-tm2-gGv3kF3-322" value="" style="endArrow=classic;html=1;rounded=0;strokeWidth=0;" edge="1" parent="ysh0__bV-tm2-gGv3kF3-320">
          <mxGeometry width="50" height="50" relative="1" as="geometry">
            <mxPoint y="20.671875" as="sourcePoint" />
            <mxPoint y="28.328125" as="targetPoint" />
          </mxGeometry>
        </mxCell>
        <mxCell id="ysh0__bV-tm2-gGv3kF3-323" value="" style="group" vertex="1" connectable="0" parent="ysh0__bV-tm2-gGv3kF3-317">
          <mxGeometry width="40" height="72.5" as="geometry" />
        </mxCell>
        <mxCell id="ysh0__bV-tm2-gGv3kF3-324" value="CONV2DT&lt;br&gt;Kernel 4x4x128" style="text;html=1;align=left;verticalAlign=middle;resizable=0;points=[];autosize=1;fontSize=5;" vertex="1" parent="ysh0__bV-tm2-gGv3kF3-323">
          <mxGeometry width="60" height="30" as="geometry" />
        </mxCell>
        <mxCell id="ysh0__bV-tm2-gGv3kF3-325" value="&lt;font style=&quot;font-size: 5px;&quot;&gt;Instance&amp;nbsp;&lt;/font&gt;&lt;div&gt;&lt;font style=&quot;font-size: 5px;&quot;&gt;Normalization&lt;/font&gt;&lt;/div&gt;" style="text;html=1;align=left;verticalAlign=middle;resizable=0;points=[];autosize=1;strokeColor=none;fillColor=none;fontSize=7;" vertex="1" parent="ysh0__bV-tm2-gGv3kF3-323">
          <mxGeometry y="18.265625" width="50" height="30" as="geometry" />
        </mxCell>
        <mxCell id="ysh0__bV-tm2-gGv3kF3-326" value="&lt;div&gt;&lt;span style=&quot;background-color: transparent; color: light-dark(rgb(0, 0, 0), rgb(255, 255, 255));&quot;&gt;&lt;font style=&quot;font-size: 5px;&quot;&gt;Dropout&lt;/font&gt;&lt;/span&gt;&lt;/div&gt;" style="text;html=1;align=left;verticalAlign=middle;resizable=0;points=[];autosize=1;strokeColor=none;fillColor=none;fontSize=7;" vertex="1" parent="ysh0__bV-tm2-gGv3kF3-323">
          <mxGeometry y="39.15625" width="40" height="20" as="geometry" />
        </mxCell>
        <mxCell id="ysh0__bV-tm2-gGv3kF3-327" value="&lt;div&gt;&lt;span style=&quot;background-color: transparent; color: light-dark(rgb(0, 0, 0), rgb(255, 255, 255));&quot;&gt;&lt;font style=&quot;font-size: 5px;&quot;&gt;Relu&lt;/font&gt;&lt;/span&gt;&lt;/div&gt;" style="text;html=1;align=left;verticalAlign=middle;resizable=0;points=[];autosize=1;strokeColor=none;fillColor=none;fontSize=7;" vertex="1" parent="ysh0__bV-tm2-gGv3kF3-323">
          <mxGeometry y="52.5" width="30" height="20" as="geometry" />
        </mxCell>
        <mxCell id="ysh0__bV-tm2-gGv3kF3-331" value="" style="edgeStyle=none;orthogonalLoop=1;jettySize=auto;html=1;rounded=0;" edge="1" parent="1">
          <mxGeometry width="100" relative="1" as="geometry">
            <mxPoint x="320" y="-1" as="sourcePoint" />
            <mxPoint x="390" y="-1" as="targetPoint" />
            <Array as="points" />
          </mxGeometry>
        </mxCell>
        <mxCell id="ysh0__bV-tm2-gGv3kF3-346" value="" style="group;rounded=1;strokeWidth=0;" vertex="1" connectable="0" parent="1">
          <mxGeometry x="404" y="301" width="60" height="70" as="geometry" />
        </mxCell>
        <mxCell id="ysh0__bV-tm2-gGv3kF3-347" value="" style="group;fontSize=5;rounded=1;container=0;" vertex="1" connectable="0" parent="ysh0__bV-tm2-gGv3kF3-346">
          <mxGeometry width="40" height="70" as="geometry" />
        </mxCell>
        <mxCell id="ysh0__bV-tm2-gGv3kF3-348" value="CONV2D&lt;br&gt;Kernel 4x4x64" style="text;html=1;align=left;verticalAlign=middle;resizable=0;points=[];autosize=1;fontSize=5;" vertex="1" parent="ysh0__bV-tm2-gGv3kF3-346">
          <mxGeometry width="60" height="30" as="geometry" />
        </mxCell>
        <mxCell id="ysh0__bV-tm2-gGv3kF3-349" value="&lt;font style=&quot;font-size: 5px;&quot;&gt;Instance&amp;nbsp;&lt;/font&gt;&lt;div&gt;&lt;font style=&quot;font-size: 5px;&quot;&gt;Normalization&lt;/font&gt;&lt;/div&gt;" style="text;html=1;align=left;verticalAlign=middle;resizable=0;points=[];autosize=1;strokeColor=none;fillColor=none;fontSize=7;" vertex="1" parent="ysh0__bV-tm2-gGv3kF3-346">
          <mxGeometry y="21.875" width="50" height="30" as="geometry" />
        </mxCell>
        <mxCell id="ysh0__bV-tm2-gGv3kF3-350" value="&lt;div&gt;&lt;span style=&quot;background-color: transparent; color: light-dark(rgb(0, 0, 0), rgb(255, 255, 255));&quot;&gt;&lt;font style=&quot;font-size: 5px;&quot;&gt;LeakyRelu&lt;/font&gt;&lt;/span&gt;&lt;/div&gt;" style="text;html=1;align=left;verticalAlign=middle;resizable=0;points=[];autosize=1;strokeColor=none;fillColor=none;fontSize=7;" vertex="1" parent="ysh0__bV-tm2-gGv3kF3-346">
          <mxGeometry y="44.75" width="50" height="20" as="geometry" />
        </mxCell>
        <mxCell id="ysh0__bV-tm2-gGv3kF3-351" value="" style="group" vertex="1" connectable="0" parent="ysh0__bV-tm2-gGv3kF3-346">
          <mxGeometry x="5.734693877551042" y="19.625" height="32.375" as="geometry" />
        </mxCell>
        <mxCell id="ysh0__bV-tm2-gGv3kF3-352" value="" style="endArrow=classic;html=1;rounded=0;strokeWidth=0;" edge="1" parent="ysh0__bV-tm2-gGv3kF3-351">
          <mxGeometry width="50" height="50" relative="1" as="geometry">
            <mxPoint as="sourcePoint" />
            <mxPoint y="8.75" as="targetPoint" />
          </mxGeometry>
        </mxCell>
        <mxCell id="ysh0__bV-tm2-gGv3kF3-353" value="" style="endArrow=classic;html=1;rounded=0;strokeWidth=0;" edge="1" parent="ysh0__bV-tm2-gGv3kF3-351">
          <mxGeometry width="50" height="50" relative="1" as="geometry">
            <mxPoint y="23.625" as="sourcePoint" />
            <mxPoint y="32.375" as="targetPoint" />
          </mxGeometry>
        </mxCell>
        <mxCell id="ysh0__bV-tm2-gGv3kF3-354" value="" style="group;rounded=1;strokeWidth=0;" vertex="1" connectable="0" parent="1">
          <mxGeometry x="514" y="301" width="60" height="70" as="geometry" />
        </mxCell>
        <mxCell id="ysh0__bV-tm2-gGv3kF3-355" value="" style="group;fontSize=5;rounded=1;container=0;" vertex="1" connectable="0" parent="ysh0__bV-tm2-gGv3kF3-354">
          <mxGeometry width="33.333333333333336" height="70" as="geometry" />
        </mxCell>
        <mxCell id="ysh0__bV-tm2-gGv3kF3-356" value="CONV2D&lt;br&gt;Kernel 4x4x128" style="text;html=1;align=left;verticalAlign=middle;resizable=0;points=[];autosize=1;fontSize=5;" vertex="1" parent="ysh0__bV-tm2-gGv3kF3-354">
          <mxGeometry width="60" height="30" as="geometry" />
        </mxCell>
        <mxCell id="ysh0__bV-tm2-gGv3kF3-357" value="&lt;font style=&quot;font-size: 5px;&quot;&gt;Instance&amp;nbsp;&lt;/font&gt;&lt;div&gt;&lt;font style=&quot;font-size: 5px;&quot;&gt;Normalization&lt;/font&gt;&lt;/div&gt;" style="text;html=1;align=left;verticalAlign=middle;resizable=0;points=[];autosize=1;strokeColor=none;fillColor=none;fontSize=7;" vertex="1" parent="ysh0__bV-tm2-gGv3kF3-354">
          <mxGeometry y="21.875" width="50" height="30" as="geometry" />
        </mxCell>
        <mxCell id="ysh0__bV-tm2-gGv3kF3-358" value="&lt;div&gt;&lt;span style=&quot;background-color: transparent; color: light-dark(rgb(0, 0, 0), rgb(255, 255, 255));&quot;&gt;&lt;font style=&quot;font-size: 5px;&quot;&gt;LeakyRelu&lt;/font&gt;&lt;/span&gt;&lt;/div&gt;" style="text;html=1;align=left;verticalAlign=middle;resizable=0;points=[];autosize=1;strokeColor=none;fillColor=none;fontSize=7;" vertex="1" parent="ysh0__bV-tm2-gGv3kF3-354">
          <mxGeometry y="44.75" width="50" height="20" as="geometry" />
        </mxCell>
        <mxCell id="ysh0__bV-tm2-gGv3kF3-359" value="" style="group" vertex="1" connectable="0" parent="ysh0__bV-tm2-gGv3kF3-354">
          <mxGeometry x="4.778911564625869" y="19.625" height="32.375" as="geometry" />
        </mxCell>
        <mxCell id="ysh0__bV-tm2-gGv3kF3-360" value="" style="endArrow=classic;html=1;rounded=0;strokeWidth=0;" edge="1" parent="ysh0__bV-tm2-gGv3kF3-359">
          <mxGeometry width="50" height="50" relative="1" as="geometry">
            <mxPoint as="sourcePoint" />
            <mxPoint y="8.75" as="targetPoint" />
          </mxGeometry>
        </mxCell>
        <mxCell id="ysh0__bV-tm2-gGv3kF3-361" value="" style="endArrow=classic;html=1;rounded=0;strokeWidth=0;" edge="1" parent="ysh0__bV-tm2-gGv3kF3-359">
          <mxGeometry width="50" height="50" relative="1" as="geometry">
            <mxPoint y="23.625" as="sourcePoint" />
            <mxPoint y="32.375" as="targetPoint" />
          </mxGeometry>
        </mxCell>
        <mxCell id="ysh0__bV-tm2-gGv3kF3-362" value="" style="group;rounded=1;strokeWidth=0;" vertex="1" connectable="0" parent="1">
          <mxGeometry x="614" y="301" width="60" height="70" as="geometry" />
        </mxCell>
        <mxCell id="ysh0__bV-tm2-gGv3kF3-363" value="" style="group;fontSize=5;rounded=1;container=0;" vertex="1" connectable="0" parent="ysh0__bV-tm2-gGv3kF3-362">
          <mxGeometry width="27.77777777777778" height="70" as="geometry" />
        </mxCell>
        <mxCell id="ysh0__bV-tm2-gGv3kF3-364" value="CONV2D&lt;br&gt;Kernel 4x4x256" style="text;html=1;align=left;verticalAlign=middle;resizable=0;points=[];autosize=1;fontSize=5;" vertex="1" parent="ysh0__bV-tm2-gGv3kF3-362">
          <mxGeometry width="60" height="30" as="geometry" />
        </mxCell>
        <mxCell id="ysh0__bV-tm2-gGv3kF3-365" value="&lt;font style=&quot;font-size: 5px;&quot;&gt;Instance&amp;nbsp;&lt;/font&gt;&lt;div&gt;&lt;font style=&quot;font-size: 5px;&quot;&gt;Normalization&lt;/font&gt;&lt;/div&gt;" style="text;html=1;align=left;verticalAlign=middle;resizable=0;points=[];autosize=1;strokeColor=none;fillColor=none;fontSize=7;" vertex="1" parent="ysh0__bV-tm2-gGv3kF3-362">
          <mxGeometry y="21.875" width="50" height="30" as="geometry" />
        </mxCell>
        <mxCell id="ysh0__bV-tm2-gGv3kF3-366" value="&lt;div&gt;&lt;span style=&quot;background-color: transparent; color: light-dark(rgb(0, 0, 0), rgb(255, 255, 255));&quot;&gt;&lt;font style=&quot;font-size: 5px;&quot;&gt;LeakyRelu&lt;/font&gt;&lt;/span&gt;&lt;/div&gt;" style="text;html=1;align=left;verticalAlign=middle;resizable=0;points=[];autosize=1;strokeColor=none;fillColor=none;fontSize=7;" vertex="1" parent="ysh0__bV-tm2-gGv3kF3-362">
          <mxGeometry y="44.75" width="50" height="20" as="geometry" />
        </mxCell>
        <mxCell id="ysh0__bV-tm2-gGv3kF3-367" value="" style="group" vertex="1" connectable="0" parent="ysh0__bV-tm2-gGv3kF3-362">
          <mxGeometry x="3.98242630385489" y="19.625" height="32.375" as="geometry" />
        </mxCell>
        <mxCell id="ysh0__bV-tm2-gGv3kF3-368" value="" style="endArrow=classic;html=1;rounded=0;strokeWidth=0;" edge="1" parent="ysh0__bV-tm2-gGv3kF3-367">
          <mxGeometry width="50" height="50" relative="1" as="geometry">
            <mxPoint as="sourcePoint" />
            <mxPoint y="8.75" as="targetPoint" />
          </mxGeometry>
        </mxCell>
        <mxCell id="ysh0__bV-tm2-gGv3kF3-369" value="" style="endArrow=classic;html=1;rounded=0;strokeWidth=0;" edge="1" parent="ysh0__bV-tm2-gGv3kF3-367">
          <mxGeometry width="50" height="50" relative="1" as="geometry">
            <mxPoint y="23.625" as="sourcePoint" />
            <mxPoint y="32.375" as="targetPoint" />
          </mxGeometry>
        </mxCell>
        <mxCell id="ysh0__bV-tm2-gGv3kF3-379" value="" style="group" vertex="1" connectable="0" parent="1">
          <mxGeometry x="740" y="310" width="25" height="25" as="geometry" />
        </mxCell>
        <mxCell id="ysh0__bV-tm2-gGv3kF3-374" value="" style="ellipse;whiteSpace=wrap;html=1;aspect=fixed;container=0;" vertex="1" parent="ysh0__bV-tm2-gGv3kF3-379">
          <mxGeometry width="25" height="25" as="geometry" />
        </mxCell>
        <mxCell id="ysh0__bV-tm2-gGv3kF3-377" value="" style="endArrow=none;html=1;rounded=0;" edge="1" parent="ysh0__bV-tm2-gGv3kF3-379">
          <mxGeometry width="50" height="50" relative="1" as="geometry">
            <mxPoint x="12.5" y="22.499999999999996" as="sourcePoint" />
            <mxPoint x="12.5" y="2.5" as="targetPoint" />
          </mxGeometry>
        </mxCell>
        <mxCell id="ysh0__bV-tm2-gGv3kF3-378" value="" style="endArrow=none;html=1;rounded=0;horizontal=0;" edge="1" parent="ysh0__bV-tm2-gGv3kF3-379">
          <mxGeometry width="50" height="50" relative="1" as="geometry">
            <mxPoint x="22.499999999999996" y="12.5" as="sourcePoint" />
            <mxPoint x="2.5" y="12.5" as="targetPoint" />
          </mxGeometry>
        </mxCell>
      </root>
    </mxGraphModel>
  </diagram>
</mxfile>
